<?xml version="1.0" encoding="UTF-8" standalone="yes"?><svg xmlns="http://www.w3.org/2000/svg" width="24" height="24" fill="none"><path fill="#000" d="M12 2C6.484 2 2 6.484 2 12s4.484 10 10 10 10-4.484 10-10S17.516 2 12 2zm.637 3.25l2.57-1.383a8.76 8.76 0 013.61 2.664l-.614 2.828-1.96.961-3.61-2.629V5.25h.004zm-3.82-1.39l2.57 1.386v2.441l-3.606 2.63-1.972-.962-.614-2.843a8.761 8.761 0 013.621-2.653zM4.788 16.94a8.663 8.663 0 01-1.492-4.093l2.117-2.297 1.93.945 1.453 4.129-1.23 1.473-2.778-.157zm9.442 3.512A8.754 8.754 0 0112 20.75a8.635 8.635 0 01-2.672-.422l-.785-2.45 1.254-1.507h4.418l1.23 1.457-1.215 2.625zm2.187-3.398l-1.207-1.43 1.473-4.129 1.921-.941 2.106 2.297a8.706 8.706 0 01-1.18 3.59l-3.113.613z" style=""/></svg>