<?xml version="1.0" encoding="UTF-8" standalone="yes"?><svg xmlns="http://www.w3.org/2000/svg" width="24" height="24" fill="none"><path fill="#000" d="M7.03 7.62L4.645 5.235a9.96 9.96 0 00-2.634 6.35h3.366A6.641 6.641 0 017.03 7.62zM7 16.413l-2.354 2.354a9.937 9.937 0 01-2.633-6.35h3.362A6.634 6.634 0 007 16.413zM5.236 19.357a9.961 9.961 0 006.35 2.633v-3.3a6.641 6.641 0 01-4-1.683l-2.35 2.35zM21.988 11.583h-3.3a6.63 6.63 0 00-1.68-3.995l2.35-2.35a9.962 9.962 0 012.63 6.345zM11.583 2.012V5.38a6.626 6.626 0 00-3.962 1.65L5.233 4.646a9.956 9.956 0 016.35-2.634zM18.767 4.647a9.96 9.96 0 00-6.349-2.636v3.363A6.642 6.642 0 0116.415 7l2.352-2.353zM21.999 11.96v.08L22 12l-.001-.04zM12 22h.014-.028H12zM18.767 19.354a9.946 9.946 0 01-6.35 2.634v-3.296a6.648 6.648 0 004.029-1.654l2.32 2.316zM2.002 12.064v-.128L2 12l.002.064zM12 2l-.082.002h.164L12 2zM17.036 16.448l2.32 2.319a9.96 9.96 0 002.633-6.348h-3.296a6.642 6.642 0 01-1.657 4.029zM15.783 14.533a1.251 1.251 0 11-2.4-.491l-.541-.546a1.612 1.612 0 01-1.725-.025l-.484.483c.092.175.15.371.15.58a1.251 1.251 0 01-2.5 0 1.254 1.254 0 011.742-1.15l.52-.521a1.618 1.618 0 01.026-1.634l-.546-.546a1.251 1.251 0 11-.492-2.4c.688 0 1.25.563 1.25 1.25 0 .213-.058.405-.15.58l.525.525c.25-.15.542-.238.846-.238.28 0 .55.08.796.213l.55-.555a1.254 1.254 0 011.15-1.742c.688 0 1.25.563 1.25 1.25 0 .692-.563 1.25-1.25 1.25-.208 0-.404-.058-.58-.15l-.512.517c.163.259.263.567.263.884 0 .3-.088.591-.242.841l.525.525c.175-.091.371-.15.58-.15.687 0 1.25.563 1.25 1.25z" style=""/></svg>