<svg width="77" height="21" viewBox="0 0 77 21" fill="none" xmlns="http://www.w3.org/2000/svg">
<path d="M30.6965 4.31027L19.962 0L9.22733 4.31027V6.8161H30.6965V4.31027Z" fill="white"/>
<path d="M14.7455 8.47007C15.0639 8.47007 15.322 8.23459 15.322 7.94383C15.322 7.65293 15.0639 7.41758 14.7455 7.41758H11.3411C11.0227 7.41758 10.7646 7.65293 10.7646 7.94383C10.7646 8.23459 11.0227 8.47007 11.3411 8.47007H11.5333V15.988H11.3411C11.0227 15.988 10.7646 16.2234 10.7646 16.5142C10.7646 16.805 11.0227 17.0406 11.3411 17.0406H14.7455C15.0639 17.0406 15.322 16.805 15.322 16.5142C15.322 16.2234 15.0639 15.988 14.7455 15.988H14.5533V8.47007H14.7455Z" fill="white"/>
<path d="M21.664 8.47007C21.9825 8.47007 22.2406 8.23459 22.2406 7.94383C22.2406 7.65293 21.9825 7.41758 21.664 7.41758H18.2597C17.9413 7.41758 17.6832 7.65293 17.6832 7.94383C17.6832 8.23459 17.9413 8.47007 18.2597 8.47007H18.4519V15.988H18.2597C17.9413 15.988 17.6832 16.2234 17.6832 16.5142C17.6832 16.805 17.9413 17.0406 18.2597 17.0406H21.664C21.9825 17.0406 22.2406 16.805 22.2406 16.5142C22.2406 16.2234 21.9825 15.988 21.664 15.988H21.4718V8.47007H21.664Z" fill="white"/>
<path d="M28.6925 8.47007C29.0108 8.47007 29.269 8.23459 29.269 7.94383C29.269 7.65293 29.0108 7.41758 28.6925 7.41758H25.2881C24.9696 7.41758 24.7115 7.65293 24.7115 7.94383C24.7115 8.23459 24.9696 8.47007 25.2881 8.47007H25.4802V15.988H25.2881C24.9696 15.988 24.7115 16.2234 24.7115 16.5142C24.7115 16.805 24.9696 17.0406 25.2881 17.0406H28.6925C29.0108 17.0406 29.269 16.805 29.269 16.5142C29.269 16.2234 29.0108 15.988 28.6925 15.988H28.5002V8.47007H28.6925Z" fill="white"/>
<path d="M9.77624 18.945H30.1474C30.4496 18.945 30.6965 18.7194 30.6965 18.444V18.1431C30.6965 17.8673 30.4496 17.6419 30.1474 17.6419H9.77624C9.47433 17.6419 9.22733 17.8673 9.22733 18.1431V18.444C9.22733 18.7194 9.47433 18.945 9.77624 18.945Z" fill="white"/>
<path d="M31.5751 19.5465H8.3487C8.04664 19.5465 7.79956 19.7721 7.79956 20.0475V20.4985C7.79956 20.7744 8.04664 21 8.3487 21H31.5751C31.8771 21 32.1241 20.7744 32.1241 20.4985V20.0475C32.1241 19.7721 31.8771 19.5465 31.5751 19.5465Z" fill="white"/>
<path d="M41.1841 7.52287C40.981 7.27723 40.69 7.10666 40.3165 7.00653C40.6075 6.87617 40.8272 6.70607 40.97 6.49026C41.1128 6.27471 41.1841 6.04415 41.1841 5.80355C41.1841 5.54309 41.1073 5.29744 40.9425 5.05678C40.7778 4.81638 40.5527 4.64103 40.2672 4.52562C39.9816 4.41034 39.5973 4.35525 39.1251 4.35525H36.7969V10.0239H39.1635C39.5588 10.0239 39.8882 9.99362 40.1628 9.92851C40.4374 9.86326 40.6625 9.77329 40.8438 9.64797C41.0248 9.52744 41.1786 9.35216 41.2994 9.12173C41.4257 8.89117 41.4861 8.64532 41.4861 8.37981C41.4861 8.04885 41.3874 7.7634 41.1841 7.52287ZM37.615 5.02694H38.8615C39.3062 5.02694 39.6247 5.05206 39.8059 5.10694C39.9871 5.16203 40.1299 5.25737 40.2287 5.40276C40.3275 5.54309 40.377 5.7084 40.377 5.8989C40.377 6.09936 40.3221 6.26474 40.2177 6.39511C40.1133 6.52541 39.9542 6.62082 39.7455 6.67577C39.5863 6.72075 39.3226 6.74102 38.9604 6.74102H37.615V5.02694ZM40.5088 8.86087C40.4265 9.0012 40.3221 9.10658 40.1958 9.17682C40.0695 9.25203 39.9102 9.3022 39.7235 9.33203C39.6137 9.34718 39.427 9.35708 39.1635 9.35708H37.615V7.40733H39.0536C39.449 7.40733 39.751 7.43763 39.9596 7.50267C40.1683 7.56779 40.3331 7.67809 40.4538 7.8335C40.5691 7.98878 40.6295 8.1743 40.6295 8.3848C40.6295 8.56539 40.5912 8.72054 40.5088 8.86087Z" fill="white"/>
<path d="M46.2027 9.52255C46.1699 9.35219 46.1533 8.94116 46.1533 8.29472V7.36742C46.1533 7.05672 46.1423 6.84616 46.1149 6.72589C46.071 6.53048 45.9942 6.375 45.8788 6.24962C45.769 6.12444 45.5933 6.01912 45.3517 5.93892C45.1156 5.85381 44.8026 5.81347 44.4183 5.81347C44.0285 5.81347 43.6879 5.86371 43.3969 5.95905C43.1004 6.05932 42.8753 6.19473 42.7216 6.375C42.5677 6.55553 42.4526 6.79121 42.3866 7.08151L43.1334 7.17712C43.2157 6.88131 43.342 6.68091 43.5122 6.5655C43.6825 6.45021 43.9515 6.39513 44.3085 6.39513C44.6928 6.39513 44.9837 6.4754 45.176 6.63081C45.3188 6.75101 45.3901 6.94642 45.3901 7.23207C45.3901 7.25712 45.3901 7.31725 45.3847 7.4126C45.0936 7.50775 44.6379 7.58821 44.0228 7.65293C43.7209 7.68821 43.4958 7.7233 43.3476 7.75831C43.1444 7.81339 42.9632 7.88868 42.7984 7.98881C42.6336 8.08907 42.5019 8.22449 42.4031 8.38987C42.3043 8.55518 42.2548 8.7407 42.2548 8.94116C42.2548 9.28707 42.392 9.56773 42.6556 9.788C42.9246 10.0087 43.3035 10.119 43.7978 10.119C44.0944 10.119 44.3744 10.0738 44.6379 9.98374C44.9015 9.89358 45.176 9.7381 45.456 9.51757C45.478 9.71318 45.5274 9.88335 45.5988 10.0138H46.395C46.3016 9.8585 46.2356 9.69292 46.2027 9.52255ZM45.3901 8.2195C45.3901 8.52515 45.3517 8.76063 45.2693 8.91631C45.1595 9.12176 44.9948 9.28189 44.7642 9.39737C44.5336 9.51258 44.2701 9.57265 43.979 9.57265C43.6825 9.57265 43.4573 9.51258 43.3035 9.38734C43.1498 9.26196 43.073 9.10661 43.073 8.92109C43.073 8.80083 43.106 8.69053 43.1772 8.59047C43.2487 8.49013 43.3476 8.41492 43.4792 8.36469C43.6112 8.3098 43.8308 8.26442 44.1438 8.22449C44.6983 8.15439 45.1156 8.06927 45.3901 7.96362V8.2195Z" fill="white"/>
<path d="M50.1508 6.89131C50.2112 7.03164 50.2387 7.24194 50.2387 7.52765V10.0238H51.002V7.50267C51.002 7.18188 50.9854 6.9563 50.9579 6.8262C50.914 6.6256 50.8372 6.45524 50.7218 6.30986C50.6065 6.16447 50.4363 6.04939 50.2112 5.95903C49.986 5.86886 49.7335 5.82395 49.4644 5.82395C48.8385 5.82395 48.3608 6.04939 48.0313 6.50042V5.91909H47.345V10.0238H48.1136V7.78333C48.1136 7.25709 48.2289 6.90121 48.4651 6.71072C48.7012 6.5254 48.9811 6.43019 49.3052 6.43019C49.5084 6.43019 49.684 6.47032 49.8379 6.5555C49.986 6.64075 50.0904 6.75098 50.1508 6.89131Z" fill="white"/>
<path d="M55.8998 10.0239L54.0109 7.44261L55.7295 5.9191H54.7412L52.9348 7.58819V4.35525H52.1715V10.0239H52.9348V8.39503L53.4727 7.92387L54.9609 10.0239H55.8998Z" fill="white"/>
<path d="M36.3632 14.0533H38.4112V19.0552H39.2294V14.0533H41.283V13.3867H36.3632V14.0533Z" fill="white"/>
<path d="M42.8699 14.9955C42.7217 15.0909 42.5625 15.2811 42.3867 15.572V14.9506H41.7003V19.0552H42.4581V16.9051C42.4581 16.6093 42.502 16.3388 42.5843 16.0932C42.6448 15.9327 42.738 15.8024 42.8699 15.7125C43.0017 15.622 43.1554 15.5769 43.3201 15.5769C43.5068 15.5769 43.6935 15.6271 43.8803 15.7272L44.1439 15.0807C43.8747 14.9302 43.6167 14.8555 43.3586 14.8555C43.1829 14.8555 43.0182 14.9004 42.8699 14.9955Z" fill="white"/>
<path d="M48.2783 18.554C48.2453 18.3837 48.2288 17.9729 48.2288 17.3262V16.3989C48.2288 16.0882 48.2178 15.8777 48.1904 15.7575C48.1464 15.562 48.0695 15.4065 47.9543 15.2811C47.8444 15.156 47.6687 15.0509 47.4271 14.9705C47.191 14.8852 46.8782 14.8453 46.4938 14.8453C46.1039 14.8453 45.7634 14.8952 45.4724 14.9905C45.1759 15.0909 44.9508 15.2262 44.797 15.4065C44.6433 15.5871 44.5279 15.8227 44.4622 16.1133L45.2089 16.2087C45.2912 15.9127 45.4175 15.7125 45.5877 15.597C45.7579 15.4818 46.0269 15.4266 46.3839 15.4266C46.7682 15.4266 47.0593 15.5069 47.2514 15.6623C47.3942 15.7825 47.4656 15.9779 47.4656 16.2636C47.4656 16.2886 47.4656 16.3487 47.4601 16.4441C47.1691 16.5392 46.7134 16.6194 46.0983 16.6846C45.7963 16.7196 45.5713 16.7548 45.423 16.7898C45.2198 16.8449 45.0386 16.9202 44.8739 17.0203C44.7092 17.1206 44.5775 17.256 44.4786 17.4214C44.3797 17.5869 44.3302 17.7722 44.3302 17.9729C44.3302 18.3186 44.4676 18.5992 44.7312 18.8196C45.0002 19.0404 45.3791 19.1505 45.8732 19.1505C46.1698 19.1505 46.4498 19.1053 46.7134 19.0152C46.9769 18.9251 47.2514 18.7696 47.5315 18.5491C47.5591 18.7396 47.6083 18.9099 47.6744 19.0453H48.4705C48.3771 18.89 48.3111 18.7244 48.2783 18.554ZM47.4711 17.2459C47.4711 17.5515 47.4328 17.7872 47.3503 17.9426C47.2405 18.148 47.0757 18.3087 46.8451 18.4236C46.6145 18.5392 46.3509 18.5992 46.0599 18.5992C45.7634 18.5992 45.5384 18.5392 45.3847 18.4137C45.2308 18.2883 45.154 18.1331 45.154 17.9478C45.154 17.8274 45.1869 17.7171 45.2583 17.6168C45.3297 17.5165 45.4284 17.4415 45.5603 17.3913C45.692 17.3362 45.9116 17.291 46.2246 17.251C46.7791 17.1808 47.1965 17.0955 47.4711 16.9905V17.2459Z" fill="white"/>
<path d="M52.8027 15.3413C52.6874 15.1959 52.5173 15.0807 52.2921 14.9906C52.067 14.9004 51.8143 14.8555 51.5454 14.8555C50.9193 14.8555 50.4417 15.0807 50.1122 15.5319V14.9506H49.4259V19.0602H50.1946V16.8199C50.1946 16.2939 50.3099 15.9378 50.5461 15.7475C50.7821 15.562 51.0621 15.4666 51.3861 15.4666C51.5892 15.4666 51.7649 15.5069 51.9187 15.592C52.067 15.6773 52.1713 15.7876 52.2316 15.9278C52.2921 16.0682 52.3195 16.2787 52.3195 16.5644V19.0602H53.0828V16.5342C53.0828 16.2134 53.0662 15.988 53.0388 15.8577C52.9949 15.6571 52.918 15.4868 52.8027 15.3413Z" fill="white"/>
<path d="M56.9923 16.8852C56.7782 16.805 56.3993 16.6945 55.8612 16.5644C55.4878 16.4741 55.2628 16.4141 55.1859 16.389C55.054 16.3388 54.9552 16.2787 54.8949 16.2035C54.8345 16.1283 54.8015 16.048 54.8015 15.9579C54.8015 15.8176 54.8783 15.6921 55.0266 15.5871C55.1803 15.4818 55.4276 15.4266 55.7788 15.4266C56.0753 15.4266 56.3005 15.4818 56.4654 15.602C56.63 15.7224 56.7288 15.8876 56.7617 16.0982L57.5084 16.0031C57.459 15.7376 57.3713 15.5268 57.245 15.3664C57.1131 15.2111 56.921 15.0859 56.6519 14.9905C56.3884 14.8952 56.0753 14.8502 55.724 14.8502C55.4878 14.8502 55.2681 14.8804 55.065 14.9355C54.8619 14.9955 54.7026 15.0608 54.5818 15.1411C54.4226 15.2462 54.3019 15.3767 54.2085 15.5319C54.115 15.6874 54.0712 15.8526 54.0712 16.0381C54.0712 16.2385 54.1261 16.424 54.236 16.5894C54.3457 16.7548 54.5105 16.8852 54.7245 16.9804C54.9442 17.0756 55.3285 17.1859 55.8887 17.316C56.306 17.4115 56.5641 17.4915 56.6684 17.5515C56.8167 17.6419 56.8935 17.7673 56.8935 17.9228C56.8935 18.0978 56.8112 18.2484 56.6409 18.3787C56.4707 18.5089 56.2127 18.5742 55.8612 18.5742C55.5098 18.5742 55.2407 18.499 55.0486 18.3536C54.8564 18.2032 54.7411 17.9928 54.6971 17.7171L53.9449 17.8274C54.0272 18.2633 54.225 18.594 54.527 18.8196C54.8289 19.0404 55.2791 19.1505 55.8612 19.1505C56.2127 19.1505 56.5311 19.0905 56.8112 18.98C57.0911 18.8698 57.3053 18.7095 57.4536 18.5041C57.5964 18.2984 57.6733 18.078 57.6733 17.8475C57.6733 17.6068 57.6129 17.4115 57.492 17.251C57.3713 17.0908 57.2064 16.9703 56.9923 16.8852Z" fill="white"/>
<path d="M59.6828 14.0533C59.7762 13.9632 59.9409 13.918 60.1715 13.918C60.3142 13.918 60.4626 13.9331 60.6217 13.9582L60.737 13.3517C60.4735 13.3065 60.2374 13.2815 60.0232 13.2815C59.6883 13.2815 59.4303 13.3416 59.2436 13.4521C59.0568 13.567 58.925 13.7126 58.8537 13.8929C58.7987 14.0281 58.7713 14.2338 58.7713 14.5092V14.9453H58.096V15.4867H58.7658V19.0502H59.54V15.4867H60.4186V14.9406H59.54V14.5594C59.54 14.3141 59.5895 14.1437 59.6828 14.0533Z" fill="white"/>
<path d="M64.8774 16.9905C64.8774 16.3138 64.6851 15.7876 64.3063 15.4117C63.9275 15.0357 63.4386 14.8502 62.8348 14.8502C62.2142 14.8502 61.7091 15.0407 61.3193 15.4216C60.9294 15.8024 60.7372 16.3388 60.7372 17.0304C60.7372 17.702 60.9294 18.2183 61.3137 18.5891C61.6981 18.9601 62.2198 19.1454 62.8786 19.1454C63.4058 19.1454 63.8341 19.0301 64.169 18.7996C64.5039 18.5692 64.7346 18.2434 64.8609 17.8224L64.0757 17.7321C63.9604 18.0226 63.8012 18.2384 63.587 18.3736C63.3894 18.5089 63.1532 18.5742 62.8732 18.5742C62.4998 18.5742 62.1868 18.4539 61.9342 18.2133C61.6872 17.9729 61.5443 17.6267 61.5169 17.176H64.8718C64.8774 17.0955 64.8774 17.0304 64.8774 16.9905ZM61.5719 16.6046C61.5993 16.2485 61.731 15.9628 61.9672 15.7475C62.2087 15.5319 62.4998 15.4266 62.8512 15.4266C63.2355 15.4266 63.554 15.562 63.7956 15.8275C63.9494 15.998 64.0481 16.2586 64.0812 16.6046H61.5719Z" fill="white"/>
<path d="M66.9802 14.9955C66.832 15.0909 66.6727 15.2811 66.497 15.572V14.9506H65.8108V19.0552H66.5684V16.9051C66.5684 16.6093 66.6123 16.3388 66.6948 16.0932C66.7551 15.9327 66.8486 15.8024 66.9802 15.7125C67.112 15.622 67.2659 15.5769 67.4305 15.5769C67.6172 15.5769 67.8039 15.6271 67.9906 15.7272L68.2541 15.0807C67.9851 14.9302 67.727 14.8555 67.469 14.8555C67.2931 14.8555 67.1286 14.9004 66.9802 14.9955Z" fill="white"/>
</svg>
