<svg width="83" height="93" fill="none" xmlns="http://www.w3.org/2000/svg"><g filter="url(#filter0_d)"><path d="M22 11h-1v42h25.197l10.248 6.832L58 60.868V53h5V11H22z" fill="#E90004" stroke="#fff" stroke-width="2"/><path fill-rule="evenodd" clip-rule="evenodd" d="M30.572 36.106c0 1.283.988 2.34 2.224 2.34h2.697a.802.802 0 00.789-.8v-7.981a.785.785 0 00-.789-.786h-1.976v-.256c0-4.322 3.987-7.867 8.481-7.868 4.641.079 8.485 3.547 8.485 7.868v.256h-1.976a.788.788 0 00-.789.786v7.98c0 .446.362.802.79.802h.374v1.847c0 .865-.667 1.57-1.461 1.57h-3.56c-.291-.823-1.031-1.395-1.912-1.395-1.133 0-2.045.964-2.045 2.15v.072c0 1.179.904 2.166 2.045 2.166.878 0 1.613-.605 1.908-1.38h3.564c1.664 0 3-1.45 3-3.183v-1.847h.783c1.236 0 2.225-1.058 2.225-2.341v-4.902c0-.987-.572-1.843-1.407-2.185v-.396c0-5.238-4.308-9.48-10.022-9.48s-10.022 4.242-10.022 9.48v.396c-.835.342-1.407 1.198-1.407 2.185v4.902zm1.538-4.902c0-.405.311-.713.686-.713h1.947v6.344h-1.947c-.37 0-.686-.32-.686-.729v-4.902zm19.094-.713c.375 0 .686.308.686.713v4.902c0 .41-.315.729-.686.729h-1.947V30.49h1.947z" fill="#fff"/><path fill-rule="evenodd" clip-rule="evenodd" d="M32.796 38.747c-1.417 0-2.524-1.208-2.524-2.641v-4.902c0-1.029.556-1.942 1.406-2.377v-.204c0-5.415 4.455-9.78 10.322-9.78 5.867 0 10.322 4.365 10.322 9.78v.204c.85.435 1.407 1.348 1.407 2.377v4.902c0 1.433-1.108 2.64-2.525 2.64h-.483v1.548c0 1.88-1.452 3.483-3.3 3.483h-3.367c-.375.78-1.16 1.38-2.105 1.38-1.325 0-2.345-1.14-2.345-2.466v-.072c0-1.337 1.032-2.45 2.345-2.45.944 0 1.74.57 2.114 1.396h3.358c.61 0 1.161-.553 1.161-1.27v-1.548h-.075a1.099 1.099 0 01-1.089-1.101v-7.981c0-.63.52-1.086 1.09-1.086h1.675c-.026-4.108-3.698-7.447-8.187-7.524-4.338.002-8.152 3.413-8.179 7.524h1.676c.577 0 1.089.46 1.089 1.086v7.98c0 .613-.502 1.102-1.089 1.102h-2.697zm2.697-9.868c.42 0 .789.334.789.786v7.98c0 .447-.368.802-.789.802h-2.697c-1.236 0-2.224-1.058-2.224-2.341v-4.902c0-.987.57-1.843 1.406-2.185v-.396c0-5.238 4.308-9.48 10.022-9.48s10.022 4.242 10.022 9.48v.396c.836.342 1.407 1.198 1.407 2.185v4.902c0 1.283-.989 2.34-2.225 2.34h-.783v1.848c0 1.733-1.336 3.183-3 3.183h-3.564c-.295.775-1.03 1.38-1.908 1.38-1.14 0-2.045-.987-2.045-2.166v-.072c0-1.186.912-2.15 2.045-2.15.88 0 1.62.572 1.912 1.396h3.56c.794 0 1.461-.706 1.461-1.57v-1.848h-.375a.799.799 0 01-.789-.801v-7.981c0-.453.374-.786.79-.786h1.975v-.256-.044c-.026-4.3-3.86-7.746-8.484-7.824-4.48 0-8.455 3.523-8.482 7.824v.3h1.976zm-2.697 1.912c-.202 0-.386.167-.386.413v4.902c0 .257.194.429.386.429h1.647V30.79h-1.647zm0-.3a.695.695 0 00-.686.713v4.902c0 .41.315.729.686.729h1.947V30.49h-1.947zm18.794.713c0-.246-.184-.413-.386-.413h-1.647v5.744h1.647c.192 0 .386-.172.386-.429v-4.902zm-2.333 5.63v-6.343h1.947c.375 0 .686.308.686.713v4.902c0 .41-.315.729-.686.729h-1.947z" fill="#fff"/></g><defs><filter id="filter0_d" x="0" y="0" width="84" height="92.737" filterUnits="userSpaceOnUse" color-interpolation-filters="sRGB"><feFlood flood-opacity="0" result="BackgroundImageFix"/><feColorMatrix in="SourceAlpha" values="0 0 0 0 0 0 0 0 0 0 0 0 0 0 0 0 0 0 127 0"/><feOffset dy="10"/><feGaussianBlur stdDeviation="10"/><feColorMatrix values="0 0 0 0 0.913725 0 0 0 0 0 0 0 0 0 0.0156863 0 0 0 0.3 0"/><feBlend in2="BackgroundImageFix" result="effect1_dropShadow"/><feBlend in="SourceGraphic" in2="effect1_dropShadow" result="shape"/></filter></defs></svg>