<?xml version="1.0" encoding="UTF-8" standalone="yes"?><svg xmlns="http://www.w3.org/2000/svg" xmlns:v="https://vecta.io/nano" width="17" height="18" fill="none"><path fill="#fff" fill-rule="evenodd" d="M3.267 6.61c.084-2.617 2.489-4.783 5.229-4.785 2.84.05 5.156 2.171 5.237 4.785h-.981a.83.83 0 0 0-.824.835v5.314a.84.84 0 0 0 .761.843v.92c0 .425-.319.733-.647.733H9.92c-.272-.55-.812-.929-1.453-.929-.928 0-1.645.8-1.645 1.744v.048c0 .935.708 1.754 1.645 1.754.642 0 1.174-.399 1.446-.919h2.13c1.279 0 2.27-1.126 2.27-2.431v-.918h.203c.996 0 1.762-.863 1.762-1.87V8.47c0-.7-.359-1.328-.919-1.65v-.069c0-3.67-2.964-6.624-6.858-6.624S1.642 3.082 1.642 6.752v.069c-.561.322-.919.95-.919 1.65v3.263c0 1.008.766 1.87 1.762 1.87h1.762a.84.84 0 0 0 .824-.845V7.445a.83.83 0 0 0-.824-.835h-.98z" style=""/></svg>