<svg width="24" height="19" viewBox="0 0 24 19" fill="none" xmlns="http://www.w3.org/2000/svg">
<g clip-path="url(#clip0_15090_315261)">
<path d="M24 0H0V19H24V0Z" fill="#375F89"/>
<path d="M-3.19822 7.10094C-2.47788 7.53031 -1.52582 7.51707 -0.849192 8.00807C-0.481081 8.27515 -0.227509 8.67004 0.153842 8.91988C0.361071 9.05576 0.610673 9.15314 0.745733 9.35659C1.11649 9.91517 0.44383 10.3969 0.371663 10.9297C0.294865 11.4976 0.481566 12.1012 0.874176 12.5333C1.16813 12.8567 1.45944 13.0588 1.68388 13.4424C1.90832 13.8255 2.07782 14.2383 2.18905 14.6644C2.68096 16.5463 1.69977 18.3997 2.06987 20.2704C2.18242 20.8389 2.41613 21.3842 2.74716 21.868C2.88819 22.074 3.79324 23.0793 3.64493 22.3391C3.58468 22.0396 3.34568 21.7719 3.25696 21.4757C3.15434 21.1338 3.13646 20.7654 3.20267 20.4155C3.36157 19.5785 3.89387 18.8576 4.41227 18.1678C4.98165 17.4097 5.55103 16.6523 6.12042 15.8942C6.36138 15.5742 6.61698 15.2408 6.98838 15.0699C7.35384 14.9022 7.84176 14.8764 8.03646 14.5358C8.3238 14.0329 7.67166 13.3437 8.00994 12.8699C8.24832 12.536 8.89314 12.4789 8.90046 12.0741C8.90442 11.8634 8.71044 11.7043 8.535 11.5778C7.48956 10.8263 6.44418 10.0748 5.39875 9.32344C4.57448 8.73106 3.36025 8.11808 2.35655 8.33939C2.29431 8.1227 1.98182 8.06575 1.76731 8.15652C1.55279 8.24728 1.39919 8.43082 1.21315 8.56737C1.02711 8.70386 0.75765 8.79201 0.563002 8.66609C0.247195 8.46264 0.42794 7.93916 0.172381 7.66813C-0.0699366 7.41107 -0.569138 7.52302 -0.800197 7.25667C-1.01008 7.01412 -0.817417 6.70599 -0.939895 6.45617C-1.08952 6.15069 -1.37355 6.48533 -1.67744 6.55027C-1.9277 6.60394 -2.21107 6.57412 -2.40439 6.4131C-2.71292 6.15665 -2.78839 5.43172 -2.57521 5.09642C-2.30376 4.66968 -1.52516 4.18396 -0.996169 4.23101C-0.565827 4.26944 0.0088491 4.99504 0.363056 4.89432C0.745734 4.78498 0.835109 3.9686 1.00262 3.67903C1.33696 3.09921 1.7971 2.5956 2.25392 2.10325C2.76769 1.54862 3.29072 0.986696 3.94088 0.584471C6.29934 -0.869926 -24.832 -5.80322 -3.19822 7.10094Z" fill="#61BF5E"/>
<path d="M14.4108 0.185477C14.3062 0.259694 14.0645 0.264327 13.9864 0.373006C13.8474 0.565834 14.1009 0.75535 14.2638 0.854084C14.4048 0.940227 14.5564 0.948178 14.5498 1.13571C14.5425 1.35902 14.2055 1.51209 14.0122 1.52402C13.8175 1.53595 13.3018 1.39745 13.1853 1.57504C13.1383 1.64594 13.1972 1.87853 13.1906 1.96666C13.178 2.13166 13.1403 2.29534 13.0787 2.44973C13.027 2.57961 12.9568 2.7181 12.9972 2.85196C13.1211 3.26214 14.1294 3.24955 14.4094 3.04412C14.6776 2.84732 14.5617 2.34305 14.8431 2.08329C14.9616 1.97396 15.1126 1.90239 15.2304 1.78974C15.384 1.64329 15.5098 1.3683 15.7462 1.32986C15.9911 1.2901 16.2943 1.54125 16.4612 1.6963C16.6234 1.84739 16.7611 2.021 16.9227 2.17341C17.0359 2.28076 17.1478 2.37618 17.2279 2.51069C17.2742 2.58756 17.3252 2.8672 17.4298 2.88045C17.4748 2.88641 17.5132 2.84997 17.543 2.8175C17.6767 2.66973 17.8198 2.49413 17.786 2.30064C17.7509 2.0992 17.5417 1.9766 17.355 1.87853C17.1762 1.7851 16.5936 1.22649 17.1491 1.35703C17.5165 1.44317 17.782 1.82884 17.929 2.13564C18.0078 2.29997 18.027 2.68895 18.2772 2.70949C18.5791 2.73467 18.5315 2.30793 18.7083 2.18136C18.8758 2.06142 19.1605 2.10251 19.2399 2.28805C19.3134 2.46033 19.1929 2.65781 19.2267 2.84136C19.2777 3.11966 19.6272 3.22635 19.9152 3.28665C20.429 3.39533 20.8024 3.80948 20.3317 4.24484C20.0013 4.55032 19.3353 4.38399 19.0015 4.17394C18.7255 4.00032 18.5494 3.72731 18.2461 3.96786C18.0482 4.1249 17.8747 4.36411 17.5933 4.37538C17.308 4.38598 17.0862 4.14014 16.9591 3.89496C16.8319 3.64979 16.7426 3.37147 16.5228 3.1972C16.1745 2.9222 15.6601 3.01961 15.2245 3.13226C14.7928 3.24358 14.3604 3.35491 13.9288 3.4669C13.6898 3.52852 13.3905 3.614 13.2687 3.83334C13.1052 4.12888 13.08 4.4211 12.8284 4.68748C12.5788 4.95254 12.2445 5.14206 12.0313 5.43495C11.7069 5.87959 11.7393 6.44814 11.7129 6.96235C11.6837 7.52956 12.0127 8.04509 12.3405 8.49905C12.5603 8.80383 12.8185 9.10401 13.1714 9.25512C14.0586 9.63544 15.1139 9.01391 15.9282 9.66264C16.197 9.87666 16.2904 10.1954 16.4718 10.4724C16.8736 11.0854 17.157 11.8301 16.9498 12.5505C16.8459 12.9122 16.6929 13.2747 16.7293 13.6478C16.7538 13.8956 16.8604 14.1282 16.9425 14.3648C17.2477 15.2408 17.2358 16.2281 17.743 17.0134C17.8575 17.191 18.0084 17.3619 18.215 17.4288C18.407 17.4911 18.6169 17.454 18.8155 17.4162C19.2763 17.3288 19.7596 17.2287 19.9423 16.7754C20.139 16.2864 20.4813 15.9206 20.8189 15.5091C20.9931 15.2971 21.1758 15.0599 21.1665 14.7902C21.1573 14.5304 20.9692 14.27 21.0679 14.0281C21.1573 13.8075 21.4373 13.7259 21.6022 13.5497C21.7909 13.3489 21.8074 13.0474 21.7578 12.781C21.7087 12.5146 21.6042 12.2576 21.5869 11.9879C21.5611 11.5916 21.7279 11.2019 21.9709 10.8806C22.2133 10.5592 22.5291 10.2961 22.8415 10.0363C23.3248 9.63416 23.5877 9.3638 23.7214 8.7634C23.7559 8.60967 23.7585 8.41484 23.6182 8.33336C23.4295 8.22401 23.217 8.42479 23.0071 8.48842C22.7998 8.55205 22.5675 8.47051 22.4039 8.33269C22.2404 8.19487 22.1325 8.00732 22.0299 7.82312C21.7558 7.32878 21.5002 6.82518 21.2625 6.31428C21.1526 6.07771 21.0738 5.78681 20.9255 5.57145C20.8017 5.39122 20.6415 5.26664 20.5495 5.05459C20.4435 4.81074 20.6806 4.75176 20.8342 4.90881C20.9639 5.04134 21.0844 5.32826 21.1923 5.49194C21.4174 5.83121 21.6088 6.18242 21.8425 6.51837C22.0378 6.79867 22.2556 7.02132 22.3417 7.35926C22.4106 7.63162 22.5079 7.94904 22.7833 8.04181C23.0143 8.12001 23.2633 7.99803 23.4685 7.87017C24.1035 7.47522 24.6153 6.90934 25.1581 6.40308C25.233 6.33284 25.3124 6.2553 25.3257 6.15525C25.3382 6.06115 25.2866 5.96772 25.2138 5.9041C25.1409 5.84049 25.0489 5.80073 24.9582 5.76362C24.6304 5.62977 24.2815 5.47404 23.9313 5.40712C23.6413 5.35212 23.5003 5.30043 23.2951 5.06387C23.205 4.9605 22.8819 4.59737 23.0892 4.47014C23.2176 4.39128 23.5189 4.69345 23.6029 4.75905C23.8645 4.96248 24.1319 5.13345 24.4557 5.23351C24.7185 5.31435 25.0244 5.42236 25.2978 5.4429C25.6818 5.47206 26.0751 5.39386 26.4366 5.56085C26.6379 5.65362 26.7987 5.81134 26.9424 5.97567C27.3099 6.39645 27.6382 6.89277 27.8236 7.41493C31.717 18.3842 62.5037 -33.7738 14.4108 0.185477Z" fill="#61BF5E"/>
<path d="M23.6838 13.026C23.7619 13.3355 23.6514 13.6582 23.5156 13.9491C23.3799 14.2393 23.2157 14.5269 23.1807 14.843C23.1574 15.0517 23.18 15.2923 23.0224 15.4374C22.8615 15.5858 22.5715 15.5374 22.4305 15.3711C22.2895 15.2048 22.2816 14.9623 22.3577 14.7615C22.4914 14.4083 22.5384 14.295 22.4895 13.9305C22.455 13.6747 22.457 13.5992 22.6689 13.4455C22.8523 13.3116 22.9972 13.2719 23.1528 13.0936C23.2972 12.9286 23.5719 12.5873 23.6832 13.0267L23.6838 13.026Z" fill="#61BF5E"/>
</g>
<defs>
<clipPath id="clip0_15090_315261">
<rect width="24" height="19" fill="white"/>
</clipPath>
</defs>
</svg>
