<?xml version="1.0" encoding="UTF-8" standalone="yes"?><svg xmlns="http://www.w3.org/2000/svg" width="115" height="54" fill="none"><g filter="url(#filter0_ddd)" style=""><mask id="a" width="102" height="18" x="5.012" y="18.187" fill="#000" maskUnits="userSpaceOnUse"><path fill="#fff" d="M5.012 18.187h102v18h-102z" style=""/><path d="M8.081 26.391l.385-1.87a8 8 0 01-.535-.173 1.389 1.389 0 01-.342-.215.31.31 0 01-.106-.322c.028-.13.142-.201.342-.215.2-.015.42-.015.662 0h.706c.228-.015.37-.072.427-.173.057-.1.043-.179-.042-.236a.582.582 0 00-.278-.15 2.33 2.33 0 00-.492-.087l.32-1.548 2.95-2.215h6.158l1.838 2.043v.451l-1.282 1.936h-3.207l.449-.688h-3.528l-.491 2.365h4.938l2.01 2.215-1.07 4.99-2.928 2.215H8.787l-1.604-1.785-.17-.667.32-1.44.513-.517 3.613-.021-.449.688h3.057l.534-.387.3-1.42-.385-.559h-4.447l-1.988-2.215zM33.121 21.961L32.095 26.8l-2.993 3.226H24.72l-.727 3.42-.342.494-.663.559-.727.215h-2.929l.749-1.269.77-3.699c.099 0 .192-.014.277-.043l.214-.086a.349.349 0 00.15-.172c.014-.072-.058-.122-.214-.15a2.836 2.836 0 00-.556-.087 24.16 24.16 0 01-.556-.085c-.157-.03-.235-.072-.235-.13 0-.071.057-.114.17-.129a3.43 3.43 0 01.407-.064c.157-.014.35-.022.577-.022l.578-2.752c.128-.086.242-.18.342-.28.085-.086.164-.186.235-.301a.95.95 0 00.17-.387c.03-.143-.07-.237-.299-.28a5.727 5.727 0 00-.77-.086c-.27-.014-.527-.021-.769-.021s-.356-.036-.342-.108c.029-.1.136-.193.32-.28.2-.1.421-.186.664-.257a9.48 9.48 0 01.919-.237l.705-3.355-.235-1.247h8.787l1.731 2.774zm-4.34 2.108l-.085-.495-.534-.258H26.13l-.556 2.71h1.988l.641-.28.321-.452.257-1.225zM37.744 30.821l2.074-.021.812-.882 1.24-6-.427-.817-2.117.021-.79.84-1.262 6 .47.86zm-2.544-9.42l1.56-.945 1.433-1.27h6.029l.983 1.205 1.112 1.01-2.33 11.098-1.54.946-1.261 1.269h-6.499l-.727-1.118-1.09-1.097.32-1.549c-.156.058-.299.1-.427.13a.736.736 0 01-.3.021c-.07-.014-.092-.079-.063-.194.014-.086.092-.143.235-.172a4.99 4.99 0 01.513-.064c.185-.029.349-.057.491-.086.157-.043.243-.122.257-.237l-.535-.236 1.347-6.409c.1-.043.2-.093.3-.15.07-.058.142-.122.213-.194a.517.517 0 00.172-.28c.014-.1-.058-.129-.214-.086-.157.043-.335.1-.535.172-.2.058-.385.1-.556.13-.17.028-.256-.037-.256-.194 0-.186.05-.301.15-.344a.845.845 0 01.384-.086c.143-.015.271-.015.385 0 .114.014.178-.007.193-.065l.064-.28c.028-.128.057-.265.085-.408.043-.158.078-.33.107-.516zM57.688 34.542l-.17.172h-3.55l-.962-.28-.406-.365-.192-.645-1.219-3.678h-.684l-.77 3.678.214 1.269-4.895.021.77-1.269 1.367-6.495c-.185 0-.342-.021-.47-.064a.948.948 0 01-.3-.13c-.085-.056-.113-.143-.085-.257.015-.1.107-.158.278-.172.186-.029.378-.043.578-.043.199 0 .384-.008.555-.022.171-.014.271-.064.3-.15.014-.086-.043-.158-.171-.215a2.648 2.648 0 00-.45-.194 15.156 15.156 0 01-.448-.172c-.129-.057-.178-.122-.15-.194a.196.196 0 01.15-.129c.07-.014.15-.021.235-.021.1 0 .214.014.342.043l.47-2.172a.916.916 0 00.3-.086c.07-.029.142-.065.213-.108a.453.453 0 00.15-.236c.029-.086-.036-.15-.193-.194a3.347 3.347 0 00-.491-.15 4.946 4.946 0 01-.492-.15c-.142-.073-.206-.173-.192-.302.028-.115.085-.18.17-.194.1-.014.207 0 .321.043.129.058.278.137.45.237l.299-1.484-.214-1.247h8.936l1.475 2.666L57.71 26.8l-2.459 1.957 1.668 4.688.235.495.32.387.214.215zM54.481 23.81l-.085-.494-.535-.258h-2.03l-.556 2.71h1.988l.641-.28.32-.452.258-1.226zM59.979 34.714l.748-1.269 1.368-6.409a3.285 3.285 0 01-.599.065c-.156 0-.299-.029-.427-.086-.128-.057-.193-.165-.193-.323-.014-.157.1-.28.343-.365.242-.1.513-.172.812-.215a9.524 9.524 0 011.197-.108l-.812-.516.513-2.409h-2.352l-1.41.495.683-3.183.107-.56.235-.43.407-.214H70.71l.364.172.064.408-.128.624-.663 3.183-1.197-.495h-2.352l-2.18 10.366.213 1.269H59.98zm1.795-9.441a.79.79 0 00-.406-.022c-.128.015-.214.058-.256.13-.043.071-.036.15.021.236a.612.612 0 00.32.15c.143.044.279.058.407.044.128-.03.214-.08.256-.151.043-.072.029-.143-.042-.215-.057-.086-.157-.143-.3-.172zM70.58 25.81c.157.03.193.1.108.216-.072.1-.186.136-.342.107-.143-.028-.172-.1-.086-.215.071-.1.178-.136.32-.107zm8.766-5.376l.107 13.033.534 1.247H74.45l.492-1.247.021-.688v-.13l-.342-.172-.427-.064-.428.043-.577.193-.043.13-.278.688v1.247H67.31l1.047-1.247.684-1.592-.235.108a3.36 3.36 0 01-.491.15 1.54 1.54 0 01-.513 0c-.157-.043-.243-.15-.257-.322-.029-.115.078-.208.32-.28.257-.086.542-.158.856-.215.37-.057.784-.107 1.24-.15.071-.115.035-.187-.107-.215-.128-.044-.257-.058-.385-.044.014-.043.05-.129.107-.258.057-.143.128-.315.214-.516.085-.2.178-.423.278-.666.1-.244.206-.488.32-.732.243-.573.513-1.211.813-1.914l.427-.193.257-.15c.071-.044.092-.08.064-.108a.27.27 0 00-.128-.065.76.76 0 00-.193-.064 7.448 7.448 0 00-.235-.043 1.147 1.147 0 01-.278-.065c-.185-.057-.285-.1-.3-.129-.028-.043.008-.086.108-.129.114-.057.228-.107.342-.15.142-.058.306-.1.492-.13l1.175-2.71c.171-.014.328-.042.47-.085.115-.029.222-.065.321-.108.1-.043.164-.1.193-.172.014-.072-.022-.129-.107-.172a.84.84 0 00-.171-.064l-.428-.022a6.894 6.894 0 01-.812-.129 7.815 7.815 0 01-.62-.15c-.185-.058-.292-.122-.32-.194-.043-.072-.03-.136.042-.194a.949.949 0 01.3-.129c.127-.043.284-.079.47-.107l1.346-.086.364-.839.064-1.247h5.772l-.47 1.247zM75.797 24.5l-1.967 5.656.492-.194.449-.064.406.086.32.172.3-5.656zM95.633 25.81c.157.03.193.1.107.216-.07.1-.185.136-.342.107-.142-.028-.17-.1-.085-.215.071-.1.178-.136.32-.107zm8.766-5.376l.106 13.033.535 1.247h-5.537l.492-1.247.021-.688v-.13l-.342-.172-.428-.064-.427.043-.577.193-.043.13-.278.688v1.247h-5.558l1.047-1.247.684-1.592-.235.108a3.367 3.367 0 01-.492.15 1.54 1.54 0 01-.513 0c-.156-.043-.242-.15-.256-.322-.029-.115.078-.208.32-.28.257-.086.542-.158.855-.215.371-.057.784-.107 1.24-.15.072-.115.036-.187-.106-.215a.887.887 0 00-.385-.044c.014-.043.05-.129.107-.258.057-.143.128-.315.213-.516.086-.2.179-.423.278-.666.1-.244.207-.488.321-.732.242-.573.513-1.211.812-1.914l.428-.193.257-.15c.07-.044.092-.08.064-.108a.271.271 0 00-.129-.065.757.757 0 00-.192-.064 7.448 7.448 0 00-.235-.043 1.148 1.148 0 01-.278-.065c-.185-.057-.285-.1-.3-.129-.028-.043.008-.086.108-.129.114-.057.228-.107.342-.15.142-.058.306-.1.491-.13l1.176-2.71c.171-.014.328-.042.47-.085.114-.029.221-.065.321-.108s.164-.1.193-.172c.014-.072-.022-.129-.107-.172a.84.84 0 00-.171-.064l-.428-.022a6.9 6.9 0 01-.812-.129 7.825 7.825 0 01-.62-.15c-.186-.058-.293-.122-.321-.194-.043-.072-.029-.136.043-.194a.949.949 0 01.299-.129 2.89 2.89 0 01.47-.107l1.347-.086.364-.839.064-1.247h5.772l-.47 1.247zM100.85 24.5l-1.967 5.656.492-.194.449-.064.406.086.32.172.3-5.656z" style=""/></mask><path fill="#061249" d="M8.081 26.391l.385-1.87a8 8 0 01-.535-.173 1.389 1.389 0 01-.342-.215.31.31 0 01-.106-.322c.028-.13.142-.201.342-.215.2-.015.42-.015.662 0h.706c.228-.015.37-.072.427-.173.057-.1.043-.179-.042-.236a.582.582 0 00-.278-.15 2.33 2.33 0 00-.492-.087l.32-1.548 2.95-2.215h6.158l1.838 2.043v.451l-1.282 1.936h-3.207l.449-.688h-3.528l-.491 2.365h4.938l2.01 2.215-1.07 4.99-2.928 2.215H8.787l-1.604-1.785-.17-.667.32-1.44.513-.517 3.613-.021-.449.688h3.057l.534-.387.3-1.42-.385-.559h-4.447l-1.988-2.215zM33.121 21.961L32.095 26.8l-2.993 3.226H24.72l-.727 3.42-.342.494-.663.559-.727.215h-2.929l.749-1.269.77-3.699c.099 0 .192-.014.277-.043l.214-.086a.349.349 0 00.15-.172c.014-.072-.058-.122-.214-.15a2.836 2.836 0 00-.556-.087 24.16 24.16 0 01-.556-.085c-.157-.03-.235-.072-.235-.13 0-.071.057-.114.17-.129a3.43 3.43 0 01.407-.064c.157-.014.35-.022.577-.022l.578-2.752c.128-.086.242-.18.342-.28.085-.086.164-.186.235-.301a.95.95 0 00.17-.387c.03-.143-.07-.237-.299-.28a5.727 5.727 0 00-.77-.086c-.27-.014-.527-.021-.769-.021s-.356-.036-.342-.108c.029-.1.136-.193.32-.28.2-.1.421-.186.664-.257a9.48 9.48 0 01.919-.237l.705-3.355-.235-1.247h8.787l1.731 2.774zm-4.34 2.108l-.085-.495-.534-.258H26.13l-.556 2.71h1.988l.641-.28.321-.452.257-1.225zM37.744 30.821l2.074-.021.812-.882 1.24-6-.427-.817-2.117.021-.79.84-1.262 6 .47.86zm-2.544-9.42l1.56-.945 1.433-1.27h6.029l.983 1.205 1.112 1.01-2.33 11.098-1.54.946-1.261 1.269h-6.499l-.727-1.118-1.09-1.097.32-1.549c-.156.058-.299.1-.427.13a.736.736 0 01-.3.021c-.07-.014-.092-.079-.063-.194.014-.086.092-.143.235-.172a4.99 4.99 0 01.513-.064c.185-.029.349-.057.491-.086.157-.043.243-.122.257-.237l-.535-.236 1.347-6.409c.1-.043.2-.093.3-.15.07-.058.142-.122.213-.194a.517.517 0 00.172-.28c.014-.1-.058-.129-.214-.086-.157.043-.335.1-.535.172-.2.058-.385.1-.556.13-.17.028-.256-.037-.256-.194 0-.186.05-.301.15-.344a.845.845 0 01.384-.086c.143-.015.271-.015.385 0 .114.014.178-.007.193-.065l.064-.28c.028-.128.057-.265.085-.408.043-.158.078-.33.107-.516zM57.688 34.542l-.17.172h-3.55l-.962-.28-.406-.365-.192-.645-1.219-3.678h-.684l-.77 3.678.214 1.269-4.895.021.77-1.269 1.367-6.495c-.185 0-.342-.021-.47-.064a.948.948 0 01-.3-.13c-.085-.056-.113-.143-.085-.257.015-.1.107-.158.278-.172.186-.029.378-.043.578-.043.199 0 .384-.008.555-.022.171-.014.271-.064.3-.15.014-.086-.043-.158-.171-.215a2.648 2.648 0 00-.45-.194 15.156 15.156 0 01-.448-.172c-.129-.057-.178-.122-.15-.194a.196.196 0 01.15-.129c.07-.014.15-.021.235-.021.1 0 .214.014.342.043l.47-2.172a.916.916 0 00.3-.086c.07-.029.142-.065.213-.108a.453.453 0 00.15-.236c.029-.086-.036-.15-.193-.194a3.347 3.347 0 00-.491-.15 4.946 4.946 0 01-.492-.15c-.142-.073-.206-.173-.192-.302.028-.115.085-.18.17-.194.1-.014.207 0 .321.043.129.058.278.137.45.237l.299-1.484-.214-1.247h8.936l1.475 2.666L57.71 26.8l-2.459 1.957 1.668 4.688.235.495.32.387.214.215zM54.481 23.81l-.085-.494-.535-.258h-2.03l-.556 2.71h1.988l.641-.28.32-.452.258-1.226zM59.979 34.714l.748-1.269 1.368-6.409a3.285 3.285 0 01-.599.065c-.156 0-.299-.029-.427-.086-.128-.057-.193-.165-.193-.323-.014-.157.1-.28.343-.365.242-.1.513-.172.812-.215a9.524 9.524 0 011.197-.108l-.812-.516.513-2.409h-2.352l-1.41.495.683-3.183.107-.56.235-.43.407-.214H70.71l.364.172.064.408-.128.624-.663 3.183-1.197-.495h-2.352l-2.18 10.366.213 1.269H59.98zm1.795-9.441a.79.79 0 00-.406-.022c-.128.015-.214.058-.256.13-.043.071-.036.15.021.236a.612.612 0 00.32.15c.143.044.279.058.407.044.128-.03.214-.08.256-.151.043-.072.029-.143-.042-.215-.057-.086-.157-.143-.3-.172zM70.58 25.81c.157.03.193.1.108.216-.072.1-.186.136-.342.107-.143-.028-.172-.1-.086-.215.071-.1.178-.136.32-.107zm8.766-5.376l.107 13.033.534 1.247H74.45l.492-1.247.021-.688v-.13l-.342-.172-.427-.064-.428.043-.577.193-.043.13-.278.688v1.247H67.31l1.047-1.247.684-1.592-.235.108a3.36 3.36 0 01-.491.15 1.54 1.54 0 01-.513 0c-.157-.043-.243-.15-.257-.322-.029-.115.078-.208.32-.28.257-.086.542-.158.856-.215.37-.057.784-.107 1.24-.15.071-.115.035-.187-.107-.215-.128-.044-.257-.058-.385-.044.014-.043.05-.129.107-.258.057-.143.128-.315.214-.516.085-.2.178-.423.278-.666.1-.244.206-.488.32-.732.243-.573.513-1.211.813-1.914l.427-.193.257-.15c.071-.044.092-.08.064-.108a.27.27 0 00-.128-.065.76.76 0 00-.193-.064 7.448 7.448 0 00-.235-.043 1.147 1.147 0 01-.278-.065c-.185-.057-.285-.1-.3-.129-.028-.043.008-.086.108-.129.114-.057.228-.107.342-.15.142-.058.306-.1.492-.13l1.175-2.71c.171-.014.328-.042.47-.085.115-.029.222-.065.321-.108.1-.043.164-.1.193-.172.014-.072-.022-.129-.107-.172a.84.84 0 00-.171-.064l-.428-.022a6.894 6.894 0 01-.812-.129 7.815 7.815 0 01-.62-.15c-.185-.058-.292-.122-.32-.194-.043-.072-.03-.136.042-.194a.949.949 0 01.3-.129c.127-.043.284-.079.47-.107l1.346-.086.364-.839.064-1.247h5.772l-.47 1.247zM75.797 24.5l-1.967 5.656.492-.194.449-.064.406.086.32.172.3-5.656zM95.633 25.81c.157.03.193.1.107.216-.07.1-.185.136-.342.107-.142-.028-.17-.1-.085-.215.071-.1.178-.136.32-.107zm8.766-5.376l.106 13.033.535 1.247h-5.537l.492-1.247.021-.688v-.13l-.342-.172-.428-.064-.427.043-.577.193-.043.13-.278.688v1.247h-5.558l1.047-1.247.684-1.592-.235.108a3.367 3.367 0 01-.492.15 1.54 1.54 0 01-.513 0c-.156-.043-.242-.15-.256-.322-.029-.115.078-.208.32-.28.257-.086.542-.158.855-.215.371-.057.784-.107 1.24-.15.072-.115.036-.187-.106-.215a.887.887 0 00-.385-.044c.014-.043.05-.129.107-.258.057-.143.128-.315.213-.516.086-.2.179-.423.278-.666.1-.244.207-.488.321-.732.242-.573.513-1.211.812-1.914l.428-.193.257-.15c.07-.044.092-.08.064-.108a.271.271 0 00-.129-.065.757.757 0 00-.192-.064 7.448 7.448 0 00-.235-.043 1.148 1.148 0 01-.278-.065c-.185-.057-.285-.1-.3-.129-.028-.043.008-.086.108-.129.114-.057.228-.107.342-.15.142-.058.306-.1.491-.13l1.176-2.71c.171-.014.328-.042.47-.085.114-.029.221-.065.321-.108s.164-.1.193-.172c.014-.072-.022-.129-.107-.172a.84.84 0 00-.171-.064l-.428-.022a6.9 6.9 0 01-.812-.129 7.825 7.825 0 01-.62-.15c-.186-.058-.293-.122-.321-.194-.043-.072-.029-.136.043-.194a.949.949 0 01.299-.129 2.89 2.89 0 01.47-.107l1.347-.086.364-.839.064-1.247h5.772l-.47 1.247zM100.85 24.5l-1.967 5.656.492-.194.449-.064.406.086.32.172.3-5.656z" style=""/><path stroke="#fff" stroke-width="2" d="M8.081 26.391l.385-1.87a8 8 0 01-.535-.173 1.389 1.389 0 01-.342-.215.31.31 0 01-.106-.322c.028-.13.142-.201.342-.215.2-.015.42-.015.662 0h.706c.228-.015.37-.072.427-.173.057-.1.043-.179-.042-.236a.582.582 0 00-.278-.15 2.33 2.33 0 00-.492-.087l.32-1.548 2.95-2.215h6.158l1.838 2.043v.451l-1.282 1.936h-3.207l.449-.688h-3.528l-.491 2.365h4.938l2.01 2.215-1.07 4.99-2.928 2.215H8.787l-1.604-1.785-.17-.667.32-1.44.513-.517 3.613-.021-.449.688h3.057l.534-.387.3-1.42-.385-.559h-4.447l-1.988-2.215zM33.121 21.961L32.095 26.8l-2.993 3.226H24.72l-.727 3.42-.342.494-.663.559-.727.215h-2.929l.749-1.269.77-3.699c.099 0 .192-.014.277-.043l.214-.086a.349.349 0 00.15-.172c.014-.072-.058-.122-.214-.15a2.836 2.836 0 00-.556-.087 24.16 24.16 0 01-.556-.085c-.157-.03-.235-.072-.235-.13 0-.071.057-.114.17-.129a3.43 3.43 0 01.407-.064c.157-.014.35-.022.577-.022l.578-2.752c.128-.086.242-.18.342-.28.085-.086.164-.186.235-.301a.95.95 0 00.17-.387c.03-.143-.07-.237-.299-.28a5.727 5.727 0 00-.77-.086c-.27-.014-.527-.021-.769-.021s-.356-.036-.342-.108c.029-.1.136-.193.32-.28.2-.1.421-.186.664-.257a9.48 9.48 0 01.919-.237l.705-3.355-.235-1.247h8.787l1.731 2.774zm-4.34 2.108l-.085-.495-.534-.258H26.13l-.556 2.71h1.988l.641-.28.321-.452.257-1.225zM37.744 30.821l2.074-.021.812-.882 1.24-6-.427-.817-2.117.021-.79.84-1.262 6 .47.86zm-2.544-9.42l1.56-.945 1.433-1.27h6.029l.983 1.205 1.112 1.01-2.33 11.098-1.54.946-1.261 1.269h-6.499l-.727-1.118-1.09-1.097.32-1.549c-.156.058-.299.1-.427.13a.736.736 0 01-.3.021c-.07-.014-.092-.079-.063-.194.014-.086.092-.143.235-.172a4.99 4.99 0 01.513-.064c.185-.029.349-.057.491-.086.157-.043.243-.122.257-.237l-.535-.236 1.347-6.409c.1-.043.2-.093.3-.15.07-.058.142-.122.213-.194a.517.517 0 00.172-.28c.014-.1-.058-.129-.214-.086-.157.043-.335.1-.535.172-.2.058-.385.1-.556.13-.17.028-.256-.037-.256-.194 0-.186.05-.301.15-.344a.845.845 0 01.384-.086c.143-.015.271-.015.385 0 .114.014.178-.007.193-.065l.064-.28c.028-.128.057-.265.085-.408.043-.158.078-.33.107-.516zM57.688 34.542l-.17.172h-3.55l-.962-.28-.406-.365-.192-.645-1.219-3.678h-.684l-.77 3.678.214 1.269-4.895.021.77-1.269 1.367-6.495c-.185 0-.342-.021-.47-.064a.948.948 0 01-.3-.13c-.085-.056-.113-.143-.085-.257.015-.1.107-.158.278-.172.186-.029.378-.043.578-.043.199 0 .384-.008.555-.022.171-.014.271-.064.3-.15.014-.086-.043-.158-.171-.215a2.648 2.648 0 00-.45-.194 15.156 15.156 0 01-.448-.172c-.129-.057-.178-.122-.15-.194a.196.196 0 01.15-.129c.07-.014.15-.021.235-.021.1 0 .214.014.342.043l.47-2.172a.916.916 0 00.3-.086c.07-.029.142-.065.213-.108a.453.453 0 00.15-.236c.029-.086-.036-.15-.193-.194a3.347 3.347 0 00-.491-.15 4.946 4.946 0 01-.492-.15c-.142-.073-.206-.173-.192-.302.028-.115.085-.18.17-.194.1-.014.207 0 .321.043.129.058.278.137.45.237l.299-1.484-.214-1.247h8.936l1.475 2.666L57.71 26.8l-2.459 1.957 1.668 4.688.235.495.32.387.214.215zM54.481 23.81l-.085-.494-.535-.258h-2.03l-.556 2.71h1.988l.641-.28.32-.452.258-1.226zM59.979 34.714l.748-1.269 1.368-6.409a3.285 3.285 0 01-.599.065c-.156 0-.299-.029-.427-.086-.128-.057-.193-.165-.193-.323-.014-.157.1-.28.343-.365.242-.1.513-.172.812-.215a9.524 9.524 0 011.197-.108l-.812-.516.513-2.409h-2.352l-1.41.495.683-3.183.107-.56.235-.43.407-.214H70.71l.364.172.064.408-.128.624-.663 3.183-1.197-.495h-2.352l-2.18 10.366.213 1.269H59.98zm1.795-9.441a.79.79 0 00-.406-.022c-.128.015-.214.058-.256.13-.043.071-.036.15.021.236a.612.612 0 00.32.15c.143.044.279.058.407.044.128-.03.214-.08.256-.151.043-.072.029-.143-.042-.215-.057-.086-.157-.143-.3-.172zM70.58 25.81c.157.03.193.1.108.216-.072.1-.186.136-.342.107-.143-.028-.172-.1-.086-.215.071-.1.178-.136.32-.107zm8.766-5.376l.107 13.033.534 1.247H74.45l.492-1.247.021-.688v-.13l-.342-.172-.427-.064-.428.043-.577.193-.043.13-.278.688v1.247H67.31l1.047-1.247.684-1.592-.235.108a3.36 3.36 0 01-.491.15 1.54 1.54 0 01-.513 0c-.157-.043-.243-.15-.257-.322-.029-.115.078-.208.32-.28.257-.086.542-.158.856-.215.37-.057.784-.107 1.24-.15.071-.115.035-.187-.107-.215-.128-.044-.257-.058-.385-.044.014-.043.05-.129.107-.258.057-.143.128-.315.214-.516.085-.2.178-.423.278-.666.1-.244.206-.488.32-.732.243-.573.513-1.211.813-1.914l.427-.193.257-.15c.071-.044.092-.08.064-.108a.27.27 0 00-.128-.065.76.76 0 00-.193-.064 7.448 7.448 0 00-.235-.043 1.147 1.147 0 01-.278-.065c-.185-.057-.285-.1-.3-.129-.028-.043.008-.086.108-.129.114-.057.228-.107.342-.15.142-.058.306-.1.492-.13l1.175-2.71c.171-.014.328-.042.47-.085.115-.029.222-.065.321-.108.1-.043.164-.1.193-.172.014-.072-.022-.129-.107-.172a.84.84 0 00-.171-.064l-.428-.022a6.894 6.894 0 01-.812-.129 7.815 7.815 0 01-.62-.15c-.185-.058-.292-.122-.32-.194-.043-.072-.03-.136.042-.194a.949.949 0 01.3-.129c.127-.043.284-.079.47-.107l1.346-.086.364-.839.064-1.247h5.772l-.47 1.247zM75.797 24.5l-1.967 5.656.492-.194.449-.064.406.086.32.172.3-5.656zM95.633 25.81c.157.03.193.1.107.216-.07.1-.185.136-.342.107-.142-.028-.17-.1-.085-.215.071-.1.178-.136.32-.107zm8.766-5.376l.106 13.033.535 1.247h-5.537l.492-1.247.021-.688v-.13l-.342-.172-.428-.064-.427.043-.577.193-.043.13-.278.688v1.247h-5.558l1.047-1.247.684-1.592-.235.108a3.367 3.367 0 01-.492.15 1.54 1.54 0 01-.513 0c-.156-.043-.242-.15-.256-.322-.029-.115.078-.208.32-.28.257-.086.542-.158.855-.215.371-.057.784-.107 1.24-.15.072-.115.036-.187-.106-.215a.887.887 0 00-.385-.044c.014-.043.05-.129.107-.258.057-.143.128-.315.213-.516.086-.2.179-.423.278-.666.1-.244.207-.488.321-.732.242-.573.513-1.211.812-1.914l.428-.193.257-.15c.07-.044.092-.08.064-.108a.271.271 0 00-.129-.065.757.757 0 00-.192-.064 7.448 7.448 0 00-.235-.043 1.148 1.148 0 01-.278-.065c-.185-.057-.285-.1-.3-.129-.028-.043.008-.086.108-.129.114-.057.228-.107.342-.15.142-.058.306-.1.491-.13l1.176-2.71c.171-.014.328-.042.47-.085.114-.029.221-.065.321-.108s.164-.1.193-.172c.014-.072-.022-.129-.107-.172a.84.84 0 00-.171-.064l-.428-.022a6.9 6.9 0 01-.812-.129 7.825 7.825 0 01-.62-.15c-.186-.058-.293-.122-.321-.194-.043-.072-.029-.136.043-.194a.949.949 0 01.299-.129 2.89 2.89 0 01.47-.107l1.347-.086.364-.839.064-1.247h5.772l-.47 1.247zM100.85 24.5l-1.967 5.656.492-.194.449-.064.406.086.32.172.3-5.656z" mask="url(#a)" style=""/></g><g filter="url(#filter1_ddd)" style=""><path fill="#76FF03" d="M97.833 28.94L71.635 42.23l13.097-13.29-6.548-6.648L104.378 9 91.282 22.292l6.55 6.647z" style=""/></g><g filter="url(#filter2_ddd)" style=""><path fill="#061249" d="M94.768 30.131l-22.486 4.71 12.58-7.38-3.613-6.36 22.484-4.712-12.58 7.38 3.615 6.362z" style=""/><path stroke="#fff" d="M82.022 21.45l18.815-3.943-9.937 5.83-.425.25.244.43 3.276 5.764-18.818 3.943 9.938-5.831.425-.25-.244-.429-3.274-5.764z" style=""/></g><defs><filter id="filter0_ddd" width="110.572" height="28.535" x=".984" y="14.187" color-interpolation-filters="sRGB" filterUnits="userSpaceOnUse"><feFlood flood-opacity="0" result="BackgroundImageFix"/><feColorMatrix in="SourceAlpha" values="0 0 0 0 0 0 0 0 0 0 0 0 0 0 0 0 0 0 127 0"/><feColorMatrix values="0 0 0 0 0 0 0 0 0 0 0 0 0 0 0 0 0 0 0.2 0"/><feColorMatrix in="SourceAlpha" values="0 0 0 0 0 0 0 0 0 0 0 0 0 0 0 0 0 0 127 0"/><feColorMatrix values="0 0 0 0 0 0 0 0 0 0 0 0 0 0 0 0 0 0 0.12 0"/><feColorMatrix in="SourceAlpha" values="0 0 0 0 0 0 0 0 0 0 0 0 0 0 0 0 0 0 127 0"/><feColorMatrix values="0 0 0 0 0 0 0 0 0 0 0 0 0 0 0 0 0 0 0.14 0"/><feOffset dy="1"/><feOffset dy="3"/><feOffset dy="2"/><feGaussianBlur stdDeviation="2.5"/><feGaussianBlur stdDeviation="2"/><feGaussianBlur stdDeviation="2"/><feBlend in2="BackgroundImageFix" result="effect1_dropShadow"/><feBlend in2="effect1_dropShadow" result="effect2_dropShadow"/><feBlend in2="effect2_dropShadow" result="effect3_dropShadow"/><feBlend in="SourceGraphic" in2="effect3_dropShadow" result="shape"/></filter><filter id="filter1_ddd" width="52.743" height="53.231" x="61.635" y="0" color-interpolation-filters="sRGB" filterUnits="userSpaceOnUse"><feFlood flood-opacity="0" result="BackgroundImageFix"/><feColorMatrix in="SourceAlpha" values="0 0 0 0 0 0 0 0 0 0 0 0 0 0 0 0 0 0 127 0"/><feColorMatrix values="0 0 0 0 0 0 0 0 0 0 0 0 0 0 0 0 0 0 0.2 0"/><feColorMatrix in="SourceAlpha" values="0 0 0 0 0 0 0 0 0 0 0 0 0 0 0 0 0 0 127 0"/><feColorMatrix values="0 0 0 0 0 0 0 0 0 0 0 0 0 0 0 0 0 0 0.12 0"/><feColorMatrix in="SourceAlpha" values="0 0 0 0 0 0 0 0 0 0 0 0 0 0 0 0 0 0 127 0"/><feColorMatrix values="0 0 0 0 0 0 0 0 0 0 0 0 0 0 0 0 0 0 0.14 0"/><feOffset dy="1"/><feOffset dy="4"/><feOffset dy="2"/><feGaussianBlur stdDeviation="5"/><feGaussianBlur stdDeviation="2.5"/><feGaussianBlur stdDeviation="2"/><feBlend in2="BackgroundImageFix" result="effect1_dropShadow"/><feBlend in2="effect1_dropShadow" result="effect2_dropShadow"/><feBlend in2="effect2_dropShadow" result="effect3_dropShadow"/><feBlend in="SourceGraphic" in2="effect3_dropShadow" result="shape"/></filter><filter id="filter2_ddd" width="41.45" height="29.453" x="67.282" y="12.389" color-interpolation-filters="sRGB" filterUnits="userSpaceOnUse"><feFlood flood-opacity="0" result="BackgroundImageFix"/><feColorMatrix in="SourceAlpha" values="0 0 0 0 0 0 0 0 0 0 0 0 0 0 0 0 0 0 127 0"/><feColorMatrix values="0 0 0 0 0 0 0 0 0 0 0 0 0 0 0 0 0 0 0.2 0"/><feColorMatrix in="SourceAlpha" values="0 0 0 0 0 0 0 0 0 0 0 0 0 0 0 0 0 0 127 0"/><feColorMatrix values="0 0 0 0 0 0 0 0 0 0 0 0 0 0 0 0 0 0 0.12 0"/><feColorMatrix in="SourceAlpha" values="0 0 0 0 0 0 0 0 0 0 0 0 0 0 0 0 0 0 127 0"/><feColorMatrix values="0 0 0 0 0 0 0 0 0 0 0 0 0 0 0 0 0 0 0.14 0"/><feOffset dy="1"/><feOffset dy="3"/><feOffset dy="2"/><feGaussianBlur stdDeviation="2.5"/><feGaussianBlur stdDeviation="2"/><feGaussianBlur stdDeviation="2"/><feBlend in2="BackgroundImageFix" result="effect1_dropShadow"/><feBlend in2="effect1_dropShadow" result="effect2_dropShadow"/><feBlend in2="effect2_dropShadow" result="effect3_dropShadow"/><feBlend in="SourceGraphic" in2="effect3_dropShadow" result="shape"/></filter></defs></svg>