<svg width="326" height="112" viewBox="0 0 326 112" fill="none" xmlns="http://www.w3.org/2000/svg">
<g filter="url(#filter0_ddd)">
<mask id="path-1-outside-1" maskUnits="userSpaceOnUse" x="40.0518" y="33.456" width="245" height="42" fill="black">
<rect fill="white" x="40.0518" y="33.456" width="245" height="42"/>
<path d="M45.6518 52.876L46.5878 48.352C46.1024 48.2133 45.6691 48.0747 45.2878 47.936C44.9758 47.7973 44.6984 47.624 44.4558 47.416C44.2131 47.208 44.1264 46.948 44.1958 46.636C44.2651 46.324 44.5424 46.1507 45.0278 46.116C45.5131 46.0813 46.0504 46.0813 46.6398 46.116C47.2638 46.116 47.8358 46.116 48.3558 46.116C48.9104 46.0813 49.2571 45.9427 49.3958 45.7C49.5344 45.4573 49.4998 45.2667 49.2918 45.128C49.1184 44.9547 48.8931 44.8333 48.6158 44.764C48.2691 44.66 47.8704 44.5907 47.4198 44.556L48.1998 40.812L55.3758 35.456H70.3518L74.8238 40.396V41.488L71.7038 46.168H63.9038L64.9958 44.504H56.4158L55.2198 50.224H67.2318L72.1198 55.58L69.5198 67.644L62.3958 73H47.3678L43.4678 68.684L43.0518 67.072L43.8318 63.588L45.0798 62.34L53.8678 62.288L52.7758 63.952H60.2118L61.5118 63.016L62.2398 59.584L61.3038 58.232H50.4878L45.6518 52.876Z"/>
<path d="M106.559 42.164L104.063 53.864L96.7828 61.664H86.1228L84.3548 69.932L83.5228 71.128L81.9108 72.48L80.1428 73H73.0188L74.8388 69.932L76.7108 60.988C76.9535 60.988 77.1788 60.9533 77.3868 60.884C77.5601 60.8147 77.7335 60.7453 77.9068 60.676C78.0801 60.572 78.2015 60.4333 78.2708 60.26C78.3055 60.0867 78.1321 59.9653 77.7508 59.896C77.3695 59.792 76.9188 59.7227 76.3988 59.688C75.9135 59.6187 75.4628 59.5493 75.0468 59.48C74.6655 59.4107 74.4748 59.3067 74.4748 59.168C74.4748 58.9947 74.6135 58.8907 74.8908 58.856C75.2028 58.7867 75.5321 58.7347 75.8788 58.7C76.2601 58.6653 76.7281 58.648 77.2828 58.648L78.6868 51.992C78.9988 51.784 79.2761 51.5587 79.5188 51.316C79.7268 51.108 79.9175 50.8653 80.0908 50.588C80.2988 50.3107 80.4375 49.9987 80.5068 49.652C80.5761 49.3053 80.3335 49.08 79.7788 48.976C79.2241 48.872 78.6001 48.8027 77.9068 48.768C77.2481 48.7333 76.6241 48.716 76.0348 48.716C75.4455 48.716 75.1681 48.6293 75.2028 48.456C75.2721 48.2133 75.5321 47.988 75.9828 47.78C76.4681 47.5373 77.0055 47.3293 77.5948 47.156C78.2535 46.948 78.9988 46.7573 79.8308 46.584L81.5468 38.472L80.9748 35.456H102.347L106.559 42.164ZM96.0028 47.26L95.7948 46.064L94.4948 45.44H89.5548L88.2028 51.992H93.0388L94.5988 51.316L95.3788 50.224L96.0028 47.26Z"/>
<path d="M117.803 63.588L122.847 63.536L124.823 61.404L127.839 46.896L126.799 44.92L121.651 44.972L119.727 47L116.659 61.508L117.803 63.588ZM111.615 40.812L115.411 38.524L118.895 35.456H133.559L135.951 38.368L138.655 40.812L132.987 67.644L129.243 69.932L126.175 73H110.367L108.599 70.296L105.947 67.644L106.727 63.9C106.346 64.0387 105.999 64.1427 105.687 64.212C105.41 64.2813 105.167 64.2987 104.959 64.264C104.786 64.2293 104.734 64.0733 104.803 63.796C104.838 63.588 105.028 63.4493 105.375 63.38C105.756 63.3107 106.172 63.2587 106.623 63.224C107.074 63.1547 107.472 63.0853 107.819 63.016C108.2 62.912 108.408 62.7213 108.443 62.444L107.143 61.872L110.419 46.376C110.662 46.272 110.904 46.1507 111.147 46.012C111.32 45.8733 111.494 45.7173 111.667 45.544C111.875 45.3707 112.014 45.1453 112.083 44.868C112.118 44.6253 111.944 44.556 111.563 44.66C111.182 44.764 110.748 44.9027 110.263 45.076C109.778 45.2147 109.327 45.3187 108.911 45.388C108.495 45.4573 108.287 45.3013 108.287 44.92C108.287 44.4693 108.408 44.192 108.651 44.088C108.928 43.9493 109.24 43.88 109.587 43.88C109.934 43.8453 110.246 43.8453 110.523 43.88C110.8 43.9147 110.956 43.8627 110.991 43.724C111.026 43.5853 111.078 43.36 111.147 43.048C111.216 42.736 111.286 42.4067 111.355 42.06C111.459 41.6787 111.546 41.2627 111.615 40.812Z"/>
<path d="M166.315 72.584L165.899 73H157.267L154.927 72.324L153.939 71.44L153.471 69.88L150.507 60.988H148.843L146.971 69.88L147.491 72.948L135.583 73L137.455 69.932L140.783 54.228C140.332 54.228 139.951 54.176 139.639 54.072C139.361 54.0027 139.119 53.8987 138.911 53.76C138.703 53.6213 138.633 53.4133 138.703 53.136C138.737 52.8933 138.963 52.7547 139.379 52.72C139.829 52.6507 140.297 52.616 140.783 52.616C141.268 52.616 141.719 52.5987 142.135 52.564C142.551 52.5293 142.793 52.408 142.863 52.2C142.897 51.992 142.759 51.8187 142.447 51.68C142.135 51.5067 141.771 51.3507 141.355 51.212C140.973 51.0733 140.609 50.9347 140.263 50.796C139.951 50.6573 139.829 50.5013 139.899 50.328C139.968 50.1547 140.089 50.0507 140.263 50.016C140.436 49.9813 140.627 49.964 140.835 49.964C141.077 49.964 141.355 49.9987 141.667 50.068L142.811 44.816C143.088 44.7813 143.331 44.712 143.539 44.608C143.712 44.5387 143.885 44.452 144.059 44.348C144.232 44.2093 144.353 44.0187 144.423 43.776C144.492 43.568 144.336 43.412 143.955 43.308C143.608 43.1693 143.209 43.048 142.759 42.944C142.343 42.84 141.944 42.7187 141.563 42.58C141.216 42.4067 141.06 42.164 141.095 41.852C141.164 41.5747 141.303 41.4187 141.511 41.384C141.753 41.3493 142.013 41.384 142.291 41.488C142.603 41.6267 142.967 41.8173 143.383 42.06L144.111 38.472L143.591 35.456H165.327L168.915 41.904L166.367 53.864L160.387 58.596L164.443 69.932L165.015 71.128L165.795 72.064L166.315 72.584ZM158.515 46.636L158.307 45.44L157.007 44.816H152.067L150.715 51.368H155.551L157.111 50.692L157.891 49.6L158.515 46.636Z"/>
<path d="M171.885 73L173.705 69.932L177.033 54.436C176.479 54.54 175.993 54.592 175.577 54.592C175.196 54.592 174.849 54.5227 174.537 54.384C174.225 54.2453 174.069 53.9853 174.069 53.604C174.035 53.2227 174.312 52.928 174.901 52.72C175.491 52.4773 176.149 52.304 176.877 52.2C177.744 52.0613 178.715 51.9747 179.789 51.94L177.813 50.692L179.061 44.868H173.341L169.909 46.064L171.573 38.368L171.833 37.016L172.405 35.976L173.393 35.456H197.989L198.873 35.872L199.029 36.86L198.717 38.368L197.105 46.064L194.193 44.868H188.473L183.169 69.932L183.689 73H171.885ZM176.253 50.172C175.907 50.068 175.577 50.0507 175.265 50.12C174.953 50.1547 174.745 50.2587 174.641 50.432C174.537 50.6053 174.555 50.796 174.693 51.004C174.867 51.1773 175.127 51.2987 175.473 51.368C175.82 51.472 176.149 51.5067 176.461 51.472C176.773 51.4027 176.981 51.2813 177.085 51.108C177.189 50.9347 177.155 50.7613 176.981 50.588C176.843 50.38 176.6 50.2413 176.253 50.172Z"/>
<path d="M197.674 51.472C198.055 51.5413 198.142 51.7147 197.934 51.992C197.76 52.2347 197.483 52.3213 197.102 52.252C196.755 52.1827 196.686 52.0093 196.894 51.732C197.067 51.4893 197.327 51.4027 197.674 51.472ZM218.994 38.472L219.254 69.984L220.554 73H207.086L208.282 69.984L208.334 68.32V68.008L207.502 67.592L206.462 67.436L205.422 67.54L204.018 68.008L203.914 68.32L203.238 69.984V73H189.718L192.266 69.984L193.93 66.136C193.93 66.136 193.739 66.2227 193.358 66.396C193.011 66.5347 192.612 66.656 192.162 66.76C191.746 66.8293 191.33 66.8293 190.914 66.76C190.532 66.656 190.324 66.396 190.29 65.98C190.22 65.7027 190.48 65.4773 191.07 65.304C191.694 65.096 192.387 64.9227 193.15 64.784C194.051 64.6453 195.056 64.524 196.166 64.42C196.339 64.1427 196.252 63.9693 195.906 63.9C195.594 63.796 195.282 63.7613 194.97 63.796C195.004 63.692 195.091 63.484 195.23 63.172C195.368 62.8253 195.542 62.4093 195.75 61.924C195.958 61.4387 196.183 60.9013 196.426 60.312C196.668 59.7227 196.928 59.1333 197.206 58.544C197.795 57.1573 198.454 55.6147 199.182 53.916C199.563 53.7427 199.91 53.5867 200.222 53.448C200.464 53.3093 200.672 53.188 200.846 53.084C201.019 52.98 201.071 52.8933 201.002 52.824C200.932 52.7547 200.828 52.7027 200.69 52.668C200.551 52.5987 200.395 52.5467 200.222 52.512C200.048 52.4773 199.858 52.4427 199.65 52.408C199.372 52.3733 199.147 52.3213 198.974 52.252C198.523 52.1133 198.28 52.0093 198.246 51.94C198.176 51.836 198.263 51.732 198.506 51.628C198.783 51.4893 199.06 51.368 199.338 51.264C199.684 51.1253 200.083 51.0213 200.534 50.952L203.394 44.4C203.81 44.3653 204.191 44.296 204.538 44.192C204.815 44.1227 205.075 44.036 205.318 43.932C205.56 43.828 205.716 43.6893 205.786 43.516C205.82 43.3427 205.734 43.204 205.526 43.1C205.387 43.0307 205.248 42.9787 205.11 42.944L204.07 42.892C203.376 42.8227 202.718 42.7187 202.094 42.58C201.574 42.476 201.071 42.3547 200.586 42.216C200.135 42.0773 199.875 41.9213 199.806 41.748C199.702 41.5747 199.736 41.4187 199.91 41.28C200.118 41.1413 200.36 41.0373 200.638 40.968C200.95 40.864 201.331 40.7773 201.782 40.708L205.058 40.5L205.942 38.472L206.098 35.456H220.138L218.994 38.472ZM210.362 48.3L205.578 61.976L206.774 61.508L207.866 61.352L208.854 61.56L209.634 61.976L210.362 48.3Z"/>
<path d="M258.611 51.472C258.993 51.5413 259.079 51.7147 258.871 51.992C258.698 52.2347 258.421 52.3213 258.039 52.252C257.693 52.1827 257.623 52.0093 257.831 51.732C258.005 51.4893 258.265 51.4027 258.611 51.472ZM279.931 38.472L280.191 69.984L281.491 73H268.023L269.219 69.984L269.271 68.32V68.008L268.439 67.592L267.399 67.436L266.359 67.54L264.955 68.008L264.851 68.32L264.175 69.984V73H250.655L253.203 69.984L254.867 66.136C254.867 66.136 254.677 66.2227 254.295 66.396C253.949 66.5347 253.55 66.656 253.099 66.76C252.683 66.8293 252.267 66.8293 251.851 66.76C251.47 66.656 251.262 66.396 251.227 65.98C251.158 65.7027 251.418 65.4773 252.007 65.304C252.631 65.096 253.325 64.9227 254.087 64.784C254.989 64.6453 255.994 64.524 257.103 64.42C257.277 64.1427 257.19 63.9693 256.843 63.9C256.531 63.796 256.219 63.7613 255.907 63.796C255.942 63.692 256.029 63.484 256.167 63.172C256.306 62.8253 256.479 62.4093 256.687 61.924C256.895 61.4387 257.121 60.9013 257.363 60.312C257.606 59.7227 257.866 59.1333 258.143 58.544C258.733 57.1573 259.391 55.6147 260.119 53.916C260.501 53.7427 260.847 53.5867 261.159 53.448C261.402 53.3093 261.61 53.188 261.783 53.084C261.957 52.98 262.009 52.8933 261.939 52.824C261.87 52.7547 261.766 52.7027 261.627 52.668C261.489 52.5987 261.333 52.5467 261.159 52.512C260.986 52.4773 260.795 52.4427 260.587 52.408C260.31 52.3733 260.085 52.3213 259.911 52.252C259.461 52.1133 259.218 52.0093 259.183 51.94C259.114 51.836 259.201 51.732 259.443 51.628C259.721 51.4893 259.998 51.368 260.275 51.264C260.622 51.1253 261.021 51.0213 261.471 50.952L264.331 44.4C264.747 44.3653 265.129 44.296 265.475 44.192C265.753 44.1227 266.013 44.036 266.255 43.932C266.498 43.828 266.654 43.6893 266.723 43.516C266.758 43.3427 266.671 43.204 266.463 43.1C266.325 43.0307 266.186 42.9787 266.047 42.944L265.007 42.892C264.314 42.8227 263.655 42.7187 263.031 42.58C262.511 42.476 262.009 42.3547 261.523 42.216C261.073 42.0773 260.813 41.9213 260.743 41.748C260.639 41.5747 260.674 41.4187 260.847 41.28C261.055 41.1413 261.298 41.0373 261.575 40.968C261.887 40.864 262.269 40.7773 262.719 40.708L265.995 40.5L266.879 38.472L267.035 35.456H281.075L279.931 38.472ZM271.299 48.3L266.515 61.976L267.711 61.508L268.803 61.352L269.791 61.56L270.571 61.976L271.299 48.3Z"/>
</mask>
<path d="M45.6518 52.876L46.5878 48.352C46.1024 48.2133 45.6691 48.0747 45.2878 47.936C44.9758 47.7973 44.6984 47.624 44.4558 47.416C44.2131 47.208 44.1264 46.948 44.1958 46.636C44.2651 46.324 44.5424 46.1507 45.0278 46.116C45.5131 46.0813 46.0504 46.0813 46.6398 46.116C47.2638 46.116 47.8358 46.116 48.3558 46.116C48.9104 46.0813 49.2571 45.9427 49.3958 45.7C49.5344 45.4573 49.4998 45.2667 49.2918 45.128C49.1184 44.9547 48.8931 44.8333 48.6158 44.764C48.2691 44.66 47.8704 44.5907 47.4198 44.556L48.1998 40.812L55.3758 35.456H70.3518L74.8238 40.396V41.488L71.7038 46.168H63.9038L64.9958 44.504H56.4158L55.2198 50.224H67.2318L72.1198 55.58L69.5198 67.644L62.3958 73H47.3678L43.4678 68.684L43.0518 67.072L43.8318 63.588L45.0798 62.34L53.8678 62.288L52.7758 63.952H60.2118L61.5118 63.016L62.2398 59.584L61.3038 58.232H50.4878L45.6518 52.876Z" fill="#061249"/>
<path d="M106.559 42.164L104.063 53.864L96.7828 61.664H86.1228L84.3548 69.932L83.5228 71.128L81.9108 72.48L80.1428 73H73.0188L74.8388 69.932L76.7108 60.988C76.9535 60.988 77.1788 60.9533 77.3868 60.884C77.5601 60.8147 77.7335 60.7453 77.9068 60.676C78.0801 60.572 78.2015 60.4333 78.2708 60.26C78.3055 60.0867 78.1321 59.9653 77.7508 59.896C77.3695 59.792 76.9188 59.7227 76.3988 59.688C75.9135 59.6187 75.4628 59.5493 75.0468 59.48C74.6655 59.4107 74.4748 59.3067 74.4748 59.168C74.4748 58.9947 74.6135 58.8907 74.8908 58.856C75.2028 58.7867 75.5321 58.7347 75.8788 58.7C76.2601 58.6653 76.7281 58.648 77.2828 58.648L78.6868 51.992C78.9988 51.784 79.2761 51.5587 79.5188 51.316C79.7268 51.108 79.9175 50.8653 80.0908 50.588C80.2988 50.3107 80.4375 49.9987 80.5068 49.652C80.5761 49.3053 80.3335 49.08 79.7788 48.976C79.2241 48.872 78.6001 48.8027 77.9068 48.768C77.2481 48.7333 76.6241 48.716 76.0348 48.716C75.4455 48.716 75.1681 48.6293 75.2028 48.456C75.2721 48.2133 75.5321 47.988 75.9828 47.78C76.4681 47.5373 77.0055 47.3293 77.5948 47.156C78.2535 46.948 78.9988 46.7573 79.8308 46.584L81.5468 38.472L80.9748 35.456H102.347L106.559 42.164ZM96.0028 47.26L95.7948 46.064L94.4948 45.44H89.5548L88.2028 51.992H93.0388L94.5988 51.316L95.3788 50.224L96.0028 47.26Z" fill="#061249"/>
<path d="M117.803 63.588L122.847 63.536L124.823 61.404L127.839 46.896L126.799 44.92L121.651 44.972L119.727 47L116.659 61.508L117.803 63.588ZM111.615 40.812L115.411 38.524L118.895 35.456H133.559L135.951 38.368L138.655 40.812L132.987 67.644L129.243 69.932L126.175 73H110.367L108.599 70.296L105.947 67.644L106.727 63.9C106.346 64.0387 105.999 64.1427 105.687 64.212C105.41 64.2813 105.167 64.2987 104.959 64.264C104.786 64.2293 104.734 64.0733 104.803 63.796C104.838 63.588 105.028 63.4493 105.375 63.38C105.756 63.3107 106.172 63.2587 106.623 63.224C107.074 63.1547 107.472 63.0853 107.819 63.016C108.2 62.912 108.408 62.7213 108.443 62.444L107.143 61.872L110.419 46.376C110.662 46.272 110.904 46.1507 111.147 46.012C111.32 45.8733 111.494 45.7173 111.667 45.544C111.875 45.3707 112.014 45.1453 112.083 44.868C112.118 44.6253 111.944 44.556 111.563 44.66C111.182 44.764 110.748 44.9027 110.263 45.076C109.778 45.2147 109.327 45.3187 108.911 45.388C108.495 45.4573 108.287 45.3013 108.287 44.92C108.287 44.4693 108.408 44.192 108.651 44.088C108.928 43.9493 109.24 43.88 109.587 43.88C109.934 43.8453 110.246 43.8453 110.523 43.88C110.8 43.9147 110.956 43.8627 110.991 43.724C111.026 43.5853 111.078 43.36 111.147 43.048C111.216 42.736 111.286 42.4067 111.355 42.06C111.459 41.6787 111.546 41.2627 111.615 40.812Z" fill="#061249"/>
<path d="M166.315 72.584L165.899 73H157.267L154.927 72.324L153.939 71.44L153.471 69.88L150.507 60.988H148.843L146.971 69.88L147.491 72.948L135.583 73L137.455 69.932L140.783 54.228C140.332 54.228 139.951 54.176 139.639 54.072C139.361 54.0027 139.119 53.8987 138.911 53.76C138.703 53.6213 138.633 53.4133 138.703 53.136C138.737 52.8933 138.963 52.7547 139.379 52.72C139.829 52.6507 140.297 52.616 140.783 52.616C141.268 52.616 141.719 52.5987 142.135 52.564C142.551 52.5293 142.793 52.408 142.863 52.2C142.897 51.992 142.759 51.8187 142.447 51.68C142.135 51.5067 141.771 51.3507 141.355 51.212C140.973 51.0733 140.609 50.9347 140.263 50.796C139.951 50.6573 139.829 50.5013 139.899 50.328C139.968 50.1547 140.089 50.0507 140.263 50.016C140.436 49.9813 140.627 49.964 140.835 49.964C141.077 49.964 141.355 49.9987 141.667 50.068L142.811 44.816C143.088 44.7813 143.331 44.712 143.539 44.608C143.712 44.5387 143.885 44.452 144.059 44.348C144.232 44.2093 144.353 44.0187 144.423 43.776C144.492 43.568 144.336 43.412 143.955 43.308C143.608 43.1693 143.209 43.048 142.759 42.944C142.343 42.84 141.944 42.7187 141.563 42.58C141.216 42.4067 141.06 42.164 141.095 41.852C141.164 41.5747 141.303 41.4187 141.511 41.384C141.753 41.3493 142.013 41.384 142.291 41.488C142.603 41.6267 142.967 41.8173 143.383 42.06L144.111 38.472L143.591 35.456H165.327L168.915 41.904L166.367 53.864L160.387 58.596L164.443 69.932L165.015 71.128L165.795 72.064L166.315 72.584ZM158.515 46.636L158.307 45.44L157.007 44.816H152.067L150.715 51.368H155.551L157.111 50.692L157.891 49.6L158.515 46.636Z" fill="#061249"/>
<path d="M171.885 73L173.705 69.932L177.033 54.436C176.479 54.54 175.993 54.592 175.577 54.592C175.196 54.592 174.849 54.5227 174.537 54.384C174.225 54.2453 174.069 53.9853 174.069 53.604C174.035 53.2227 174.312 52.928 174.901 52.72C175.491 52.4773 176.149 52.304 176.877 52.2C177.744 52.0613 178.715 51.9747 179.789 51.94L177.813 50.692L179.061 44.868H173.341L169.909 46.064L171.573 38.368L171.833 37.016L172.405 35.976L173.393 35.456H197.989L198.873 35.872L199.029 36.86L198.717 38.368L197.105 46.064L194.193 44.868H188.473L183.169 69.932L183.689 73H171.885ZM176.253 50.172C175.907 50.068 175.577 50.0507 175.265 50.12C174.953 50.1547 174.745 50.2587 174.641 50.432C174.537 50.6053 174.555 50.796 174.693 51.004C174.867 51.1773 175.127 51.2987 175.473 51.368C175.82 51.472 176.149 51.5067 176.461 51.472C176.773 51.4027 176.981 51.2813 177.085 51.108C177.189 50.9347 177.155 50.7613 176.981 50.588C176.843 50.38 176.6 50.2413 176.253 50.172Z" fill="#061249"/>
<path d="M197.674 51.472C198.055 51.5413 198.142 51.7147 197.934 51.992C197.76 52.2347 197.483 52.3213 197.102 52.252C196.755 52.1827 196.686 52.0093 196.894 51.732C197.067 51.4893 197.327 51.4027 197.674 51.472ZM218.994 38.472L219.254 69.984L220.554 73H207.086L208.282 69.984L208.334 68.32V68.008L207.502 67.592L206.462 67.436L205.422 67.54L204.018 68.008L203.914 68.32L203.238 69.984V73H189.718L192.266 69.984L193.93 66.136C193.93 66.136 193.739 66.2227 193.358 66.396C193.011 66.5347 192.612 66.656 192.162 66.76C191.746 66.8293 191.33 66.8293 190.914 66.76C190.532 66.656 190.324 66.396 190.29 65.98C190.22 65.7027 190.48 65.4773 191.07 65.304C191.694 65.096 192.387 64.9227 193.15 64.784C194.051 64.6453 195.056 64.524 196.166 64.42C196.339 64.1427 196.252 63.9693 195.906 63.9C195.594 63.796 195.282 63.7613 194.97 63.796C195.004 63.692 195.091 63.484 195.23 63.172C195.368 62.8253 195.542 62.4093 195.75 61.924C195.958 61.4387 196.183 60.9013 196.426 60.312C196.668 59.7227 196.928 59.1333 197.206 58.544C197.795 57.1573 198.454 55.6147 199.182 53.916C199.563 53.7427 199.91 53.5867 200.222 53.448C200.464 53.3093 200.672 53.188 200.846 53.084C201.019 52.98 201.071 52.8933 201.002 52.824C200.932 52.7547 200.828 52.7027 200.69 52.668C200.551 52.5987 200.395 52.5467 200.222 52.512C200.048 52.4773 199.858 52.4427 199.65 52.408C199.372 52.3733 199.147 52.3213 198.974 52.252C198.523 52.1133 198.28 52.0093 198.246 51.94C198.176 51.836 198.263 51.732 198.506 51.628C198.783 51.4893 199.06 51.368 199.338 51.264C199.684 51.1253 200.083 51.0213 200.534 50.952L203.394 44.4C203.81 44.3653 204.191 44.296 204.538 44.192C204.815 44.1227 205.075 44.036 205.318 43.932C205.56 43.828 205.716 43.6893 205.786 43.516C205.82 43.3427 205.734 43.204 205.526 43.1C205.387 43.0307 205.248 42.9787 205.11 42.944L204.07 42.892C203.376 42.8227 202.718 42.7187 202.094 42.58C201.574 42.476 201.071 42.3547 200.586 42.216C200.135 42.0773 199.875 41.9213 199.806 41.748C199.702 41.5747 199.736 41.4187 199.91 41.28C200.118 41.1413 200.36 41.0373 200.638 40.968C200.95 40.864 201.331 40.7773 201.782 40.708L205.058 40.5L205.942 38.472L206.098 35.456H220.138L218.994 38.472ZM210.362 48.3L205.578 61.976L206.774 61.508L207.866 61.352L208.854 61.56L209.634 61.976L210.362 48.3Z" fill="#061249"/>
<path d="M258.611 51.472C258.993 51.5413 259.079 51.7147 258.871 51.992C258.698 52.2347 258.421 52.3213 258.039 52.252C257.693 52.1827 257.623 52.0093 257.831 51.732C258.005 51.4893 258.265 51.4027 258.611 51.472ZM279.931 38.472L280.191 69.984L281.491 73H268.023L269.219 69.984L269.271 68.32V68.008L268.439 67.592L267.399 67.436L266.359 67.54L264.955 68.008L264.851 68.32L264.175 69.984V73H250.655L253.203 69.984L254.867 66.136C254.867 66.136 254.677 66.2227 254.295 66.396C253.949 66.5347 253.55 66.656 253.099 66.76C252.683 66.8293 252.267 66.8293 251.851 66.76C251.47 66.656 251.262 66.396 251.227 65.98C251.158 65.7027 251.418 65.4773 252.007 65.304C252.631 65.096 253.325 64.9227 254.087 64.784C254.989 64.6453 255.994 64.524 257.103 64.42C257.277 64.1427 257.19 63.9693 256.843 63.9C256.531 63.796 256.219 63.7613 255.907 63.796C255.942 63.692 256.029 63.484 256.167 63.172C256.306 62.8253 256.479 62.4093 256.687 61.924C256.895 61.4387 257.121 60.9013 257.363 60.312C257.606 59.7227 257.866 59.1333 258.143 58.544C258.733 57.1573 259.391 55.6147 260.119 53.916C260.501 53.7427 260.847 53.5867 261.159 53.448C261.402 53.3093 261.61 53.188 261.783 53.084C261.957 52.98 262.009 52.8933 261.939 52.824C261.87 52.7547 261.766 52.7027 261.627 52.668C261.489 52.5987 261.333 52.5467 261.159 52.512C260.986 52.4773 260.795 52.4427 260.587 52.408C260.31 52.3733 260.085 52.3213 259.911 52.252C259.461 52.1133 259.218 52.0093 259.183 51.94C259.114 51.836 259.201 51.732 259.443 51.628C259.721 51.4893 259.998 51.368 260.275 51.264C260.622 51.1253 261.021 51.0213 261.471 50.952L264.331 44.4C264.747 44.3653 265.129 44.296 265.475 44.192C265.753 44.1227 266.013 44.036 266.255 43.932C266.498 43.828 266.654 43.6893 266.723 43.516C266.758 43.3427 266.671 43.204 266.463 43.1C266.325 43.0307 266.186 42.9787 266.047 42.944L265.007 42.892C264.314 42.8227 263.655 42.7187 263.031 42.58C262.511 42.476 262.009 42.3547 261.523 42.216C261.073 42.0773 260.813 41.9213 260.743 41.748C260.639 41.5747 260.674 41.4187 260.847 41.28C261.055 41.1413 261.298 41.0373 261.575 40.968C261.887 40.864 262.269 40.7773 262.719 40.708L265.995 40.5L266.879 38.472L267.035 35.456H281.075L279.931 38.472ZM271.299 48.3L266.515 61.976L267.711 61.508L268.803 61.352L269.791 61.56L270.571 61.976L271.299 48.3Z" fill="#061249"/>
<path d="M45.6518 52.876L46.5878 48.352C46.1024 48.2133 45.6691 48.0747 45.2878 47.936C44.9758 47.7973 44.6984 47.624 44.4558 47.416C44.2131 47.208 44.1264 46.948 44.1958 46.636C44.2651 46.324 44.5424 46.1507 45.0278 46.116C45.5131 46.0813 46.0504 46.0813 46.6398 46.116C47.2638 46.116 47.8358 46.116 48.3558 46.116C48.9104 46.0813 49.2571 45.9427 49.3958 45.7C49.5344 45.4573 49.4998 45.2667 49.2918 45.128C49.1184 44.9547 48.8931 44.8333 48.6158 44.764C48.2691 44.66 47.8704 44.5907 47.4198 44.556L48.1998 40.812L55.3758 35.456H70.3518L74.8238 40.396V41.488L71.7038 46.168H63.9038L64.9958 44.504H56.4158L55.2198 50.224H67.2318L72.1198 55.58L69.5198 67.644L62.3958 73H47.3678L43.4678 68.684L43.0518 67.072L43.8318 63.588L45.0798 62.34L53.8678 62.288L52.7758 63.952H60.2118L61.5118 63.016L62.2398 59.584L61.3038 58.232H50.4878L45.6518 52.876Z" stroke="white" stroke-width="4" mask="url(#path-1-outside-1)"/>
<path d="M106.559 42.164L104.063 53.864L96.7828 61.664H86.1228L84.3548 69.932L83.5228 71.128L81.9108 72.48L80.1428 73H73.0188L74.8388 69.932L76.7108 60.988C76.9535 60.988 77.1788 60.9533 77.3868 60.884C77.5601 60.8147 77.7335 60.7453 77.9068 60.676C78.0801 60.572 78.2015 60.4333 78.2708 60.26C78.3055 60.0867 78.1321 59.9653 77.7508 59.896C77.3695 59.792 76.9188 59.7227 76.3988 59.688C75.9135 59.6187 75.4628 59.5493 75.0468 59.48C74.6655 59.4107 74.4748 59.3067 74.4748 59.168C74.4748 58.9947 74.6135 58.8907 74.8908 58.856C75.2028 58.7867 75.5321 58.7347 75.8788 58.7C76.2601 58.6653 76.7281 58.648 77.2828 58.648L78.6868 51.992C78.9988 51.784 79.2761 51.5587 79.5188 51.316C79.7268 51.108 79.9175 50.8653 80.0908 50.588C80.2988 50.3107 80.4375 49.9987 80.5068 49.652C80.5761 49.3053 80.3335 49.08 79.7788 48.976C79.2241 48.872 78.6001 48.8027 77.9068 48.768C77.2481 48.7333 76.6241 48.716 76.0348 48.716C75.4455 48.716 75.1681 48.6293 75.2028 48.456C75.2721 48.2133 75.5321 47.988 75.9828 47.78C76.4681 47.5373 77.0055 47.3293 77.5948 47.156C78.2535 46.948 78.9988 46.7573 79.8308 46.584L81.5468 38.472L80.9748 35.456H102.347L106.559 42.164ZM96.0028 47.26L95.7948 46.064L94.4948 45.44H89.5548L88.2028 51.992H93.0388L94.5988 51.316L95.3788 50.224L96.0028 47.26Z" stroke="white" stroke-width="4" mask="url(#path-1-outside-1)"/>
<path d="M117.803 63.588L122.847 63.536L124.823 61.404L127.839 46.896L126.799 44.92L121.651 44.972L119.727 47L116.659 61.508L117.803 63.588ZM111.615 40.812L115.411 38.524L118.895 35.456H133.559L135.951 38.368L138.655 40.812L132.987 67.644L129.243 69.932L126.175 73H110.367L108.599 70.296L105.947 67.644L106.727 63.9C106.346 64.0387 105.999 64.1427 105.687 64.212C105.41 64.2813 105.167 64.2987 104.959 64.264C104.786 64.2293 104.734 64.0733 104.803 63.796C104.838 63.588 105.028 63.4493 105.375 63.38C105.756 63.3107 106.172 63.2587 106.623 63.224C107.074 63.1547 107.472 63.0853 107.819 63.016C108.2 62.912 108.408 62.7213 108.443 62.444L107.143 61.872L110.419 46.376C110.662 46.272 110.904 46.1507 111.147 46.012C111.32 45.8733 111.494 45.7173 111.667 45.544C111.875 45.3707 112.014 45.1453 112.083 44.868C112.118 44.6253 111.944 44.556 111.563 44.66C111.182 44.764 110.748 44.9027 110.263 45.076C109.778 45.2147 109.327 45.3187 108.911 45.388C108.495 45.4573 108.287 45.3013 108.287 44.92C108.287 44.4693 108.408 44.192 108.651 44.088C108.928 43.9493 109.24 43.88 109.587 43.88C109.934 43.8453 110.246 43.8453 110.523 43.88C110.8 43.9147 110.956 43.8627 110.991 43.724C111.026 43.5853 111.078 43.36 111.147 43.048C111.216 42.736 111.286 42.4067 111.355 42.06C111.459 41.6787 111.546 41.2627 111.615 40.812Z" stroke="white" stroke-width="4" mask="url(#path-1-outside-1)"/>
<path d="M166.315 72.584L165.899 73H157.267L154.927 72.324L153.939 71.44L153.471 69.88L150.507 60.988H148.843L146.971 69.88L147.491 72.948L135.583 73L137.455 69.932L140.783 54.228C140.332 54.228 139.951 54.176 139.639 54.072C139.361 54.0027 139.119 53.8987 138.911 53.76C138.703 53.6213 138.633 53.4133 138.703 53.136C138.737 52.8933 138.963 52.7547 139.379 52.72C139.829 52.6507 140.297 52.616 140.783 52.616C141.268 52.616 141.719 52.5987 142.135 52.564C142.551 52.5293 142.793 52.408 142.863 52.2C142.897 51.992 142.759 51.8187 142.447 51.68C142.135 51.5067 141.771 51.3507 141.355 51.212C140.973 51.0733 140.609 50.9347 140.263 50.796C139.951 50.6573 139.829 50.5013 139.899 50.328C139.968 50.1547 140.089 50.0507 140.263 50.016C140.436 49.9813 140.627 49.964 140.835 49.964C141.077 49.964 141.355 49.9987 141.667 50.068L142.811 44.816C143.088 44.7813 143.331 44.712 143.539 44.608C143.712 44.5387 143.885 44.452 144.059 44.348C144.232 44.2093 144.353 44.0187 144.423 43.776C144.492 43.568 144.336 43.412 143.955 43.308C143.608 43.1693 143.209 43.048 142.759 42.944C142.343 42.84 141.944 42.7187 141.563 42.58C141.216 42.4067 141.06 42.164 141.095 41.852C141.164 41.5747 141.303 41.4187 141.511 41.384C141.753 41.3493 142.013 41.384 142.291 41.488C142.603 41.6267 142.967 41.8173 143.383 42.06L144.111 38.472L143.591 35.456H165.327L168.915 41.904L166.367 53.864L160.387 58.596L164.443 69.932L165.015 71.128L165.795 72.064L166.315 72.584ZM158.515 46.636L158.307 45.44L157.007 44.816H152.067L150.715 51.368H155.551L157.111 50.692L157.891 49.6L158.515 46.636Z" stroke="white" stroke-width="4" mask="url(#path-1-outside-1)"/>
<path d="M171.885 73L173.705 69.932L177.033 54.436C176.479 54.54 175.993 54.592 175.577 54.592C175.196 54.592 174.849 54.5227 174.537 54.384C174.225 54.2453 174.069 53.9853 174.069 53.604C174.035 53.2227 174.312 52.928 174.901 52.72C175.491 52.4773 176.149 52.304 176.877 52.2C177.744 52.0613 178.715 51.9747 179.789 51.94L177.813 50.692L179.061 44.868H173.341L169.909 46.064L171.573 38.368L171.833 37.016L172.405 35.976L173.393 35.456H197.989L198.873 35.872L199.029 36.86L198.717 38.368L197.105 46.064L194.193 44.868H188.473L183.169 69.932L183.689 73H171.885ZM176.253 50.172C175.907 50.068 175.577 50.0507 175.265 50.12C174.953 50.1547 174.745 50.2587 174.641 50.432C174.537 50.6053 174.555 50.796 174.693 51.004C174.867 51.1773 175.127 51.2987 175.473 51.368C175.82 51.472 176.149 51.5067 176.461 51.472C176.773 51.4027 176.981 51.2813 177.085 51.108C177.189 50.9347 177.155 50.7613 176.981 50.588C176.843 50.38 176.6 50.2413 176.253 50.172Z" stroke="white" stroke-width="4" mask="url(#path-1-outside-1)"/>
<path d="M197.674 51.472C198.055 51.5413 198.142 51.7147 197.934 51.992C197.76 52.2347 197.483 52.3213 197.102 52.252C196.755 52.1827 196.686 52.0093 196.894 51.732C197.067 51.4893 197.327 51.4027 197.674 51.472ZM218.994 38.472L219.254 69.984L220.554 73H207.086L208.282 69.984L208.334 68.32V68.008L207.502 67.592L206.462 67.436L205.422 67.54L204.018 68.008L203.914 68.32L203.238 69.984V73H189.718L192.266 69.984L193.93 66.136C193.93 66.136 193.739 66.2227 193.358 66.396C193.011 66.5347 192.612 66.656 192.162 66.76C191.746 66.8293 191.33 66.8293 190.914 66.76C190.532 66.656 190.324 66.396 190.29 65.98C190.22 65.7027 190.48 65.4773 191.07 65.304C191.694 65.096 192.387 64.9227 193.15 64.784C194.051 64.6453 195.056 64.524 196.166 64.42C196.339 64.1427 196.252 63.9693 195.906 63.9C195.594 63.796 195.282 63.7613 194.97 63.796C195.004 63.692 195.091 63.484 195.23 63.172C195.368 62.8253 195.542 62.4093 195.75 61.924C195.958 61.4387 196.183 60.9013 196.426 60.312C196.668 59.7227 196.928 59.1333 197.206 58.544C197.795 57.1573 198.454 55.6147 199.182 53.916C199.563 53.7427 199.91 53.5867 200.222 53.448C200.464 53.3093 200.672 53.188 200.846 53.084C201.019 52.98 201.071 52.8933 201.002 52.824C200.932 52.7547 200.828 52.7027 200.69 52.668C200.551 52.5987 200.395 52.5467 200.222 52.512C200.048 52.4773 199.858 52.4427 199.65 52.408C199.372 52.3733 199.147 52.3213 198.974 52.252C198.523 52.1133 198.28 52.0093 198.246 51.94C198.176 51.836 198.263 51.732 198.506 51.628C198.783 51.4893 199.06 51.368 199.338 51.264C199.684 51.1253 200.083 51.0213 200.534 50.952L203.394 44.4C203.81 44.3653 204.191 44.296 204.538 44.192C204.815 44.1227 205.075 44.036 205.318 43.932C205.56 43.828 205.716 43.6893 205.786 43.516C205.82 43.3427 205.734 43.204 205.526 43.1C205.387 43.0307 205.248 42.9787 205.11 42.944L204.07 42.892C203.376 42.8227 202.718 42.7187 202.094 42.58C201.574 42.476 201.071 42.3547 200.586 42.216C200.135 42.0773 199.875 41.9213 199.806 41.748C199.702 41.5747 199.736 41.4187 199.91 41.28C200.118 41.1413 200.36 41.0373 200.638 40.968C200.95 40.864 201.331 40.7773 201.782 40.708L205.058 40.5L205.942 38.472L206.098 35.456H220.138L218.994 38.472ZM210.362 48.3L205.578 61.976L206.774 61.508L207.866 61.352L208.854 61.56L209.634 61.976L210.362 48.3Z" stroke="white" stroke-width="4" mask="url(#path-1-outside-1)"/>
<path d="M258.611 51.472C258.993 51.5413 259.079 51.7147 258.871 51.992C258.698 52.2347 258.421 52.3213 258.039 52.252C257.693 52.1827 257.623 52.0093 257.831 51.732C258.005 51.4893 258.265 51.4027 258.611 51.472ZM279.931 38.472L280.191 69.984L281.491 73H268.023L269.219 69.984L269.271 68.32V68.008L268.439 67.592L267.399 67.436L266.359 67.54L264.955 68.008L264.851 68.32L264.175 69.984V73H250.655L253.203 69.984L254.867 66.136C254.867 66.136 254.677 66.2227 254.295 66.396C253.949 66.5347 253.55 66.656 253.099 66.76C252.683 66.8293 252.267 66.8293 251.851 66.76C251.47 66.656 251.262 66.396 251.227 65.98C251.158 65.7027 251.418 65.4773 252.007 65.304C252.631 65.096 253.325 64.9227 254.087 64.784C254.989 64.6453 255.994 64.524 257.103 64.42C257.277 64.1427 257.19 63.9693 256.843 63.9C256.531 63.796 256.219 63.7613 255.907 63.796C255.942 63.692 256.029 63.484 256.167 63.172C256.306 62.8253 256.479 62.4093 256.687 61.924C256.895 61.4387 257.121 60.9013 257.363 60.312C257.606 59.7227 257.866 59.1333 258.143 58.544C258.733 57.1573 259.391 55.6147 260.119 53.916C260.501 53.7427 260.847 53.5867 261.159 53.448C261.402 53.3093 261.61 53.188 261.783 53.084C261.957 52.98 262.009 52.8933 261.939 52.824C261.87 52.7547 261.766 52.7027 261.627 52.668C261.489 52.5987 261.333 52.5467 261.159 52.512C260.986 52.4773 260.795 52.4427 260.587 52.408C260.31 52.3733 260.085 52.3213 259.911 52.252C259.461 52.1133 259.218 52.0093 259.183 51.94C259.114 51.836 259.201 51.732 259.443 51.628C259.721 51.4893 259.998 51.368 260.275 51.264C260.622 51.1253 261.021 51.0213 261.471 50.952L264.331 44.4C264.747 44.3653 265.129 44.296 265.475 44.192C265.753 44.1227 266.013 44.036 266.255 43.932C266.498 43.828 266.654 43.6893 266.723 43.516C266.758 43.3427 266.671 43.204 266.463 43.1C266.325 43.0307 266.186 42.9787 266.047 42.944L265.007 42.892C264.314 42.8227 263.655 42.7187 263.031 42.58C262.511 42.476 262.009 42.3547 261.523 42.216C261.073 42.0773 260.813 41.9213 260.743 41.748C260.639 41.5747 260.674 41.4187 260.847 41.28C261.055 41.1413 261.298 41.0373 261.575 40.968C261.887 40.864 262.269 40.7773 262.719 40.708L265.995 40.5L266.879 38.472L267.035 35.456H281.075L279.931 38.472ZM271.299 48.3L266.515 61.976L267.711 61.508L268.803 61.352L269.791 61.56L270.571 61.976L271.299 48.3Z" stroke="white" stroke-width="4" mask="url(#path-1-outside-1)"/>
</g>
<g filter="url(#filter1_ddd)">
<path d="M263.961 59.0365L200.239 91.1751L232.095 59.0365L216.167 42.9636L279.882 10.825L248.026 42.9636L263.961 59.0365Z" fill="#76FF03"/>
</g>
<g filter="url(#filter2_ddd)">
<path d="M256.504 61.9188L201.811 73.3092L232.409 55.4626L223.622 40.0825L278.31 28.6907L247.712 46.5373L256.504 61.9188Z" fill="#061249"/>
<path d="M225.173 40.781L272.498 30.9228L247.208 45.6735L246.352 46.1729L246.844 47.0335L254.953 61.2203L207.622 71.0775L232.913 56.3264L233.769 55.8271L233.278 54.9665L225.173 40.781Z" stroke="white" stroke-width="2"/>
</g>
<defs>
<filter id="filter0_ddd" x="35.9946" y="29.456" width="253.536" height="52.5596" filterUnits="userSpaceOnUse" color-interpolation-filters="sRGB">
<feFlood flood-opacity="0" result="BackgroundImageFix"/>
<feColorMatrix in="SourceAlpha" type="matrix" values="0 0 0 0 0 0 0 0 0 0 0 0 0 0 0 0 0 0 127 0"/>
<feOffset dy="1"/>
<feGaussianBlur stdDeviation="2.5"/>
<feColorMatrix type="matrix" values="0 0 0 0 0 0 0 0 0 0 0 0 0 0 0 0 0 0 0.2 0"/>
<feBlend mode="normal" in2="BackgroundImageFix" result="effect1_dropShadow"/>
<feColorMatrix in="SourceAlpha" type="matrix" values="0 0 0 0 0 0 0 0 0 0 0 0 0 0 0 0 0 0 127 0"/>
<feOffset dy="3"/>
<feGaussianBlur stdDeviation="2"/>
<feColorMatrix type="matrix" values="0 0 0 0 0 0 0 0 0 0 0 0 0 0 0 0 0 0 0.12 0"/>
<feBlend mode="normal" in2="effect1_dropShadow" result="effect2_dropShadow"/>
<feColorMatrix in="SourceAlpha" type="matrix" values="0 0 0 0 0 0 0 0 0 0 0 0 0 0 0 0 0 0 127 0"/>
<feOffset dy="2"/>
<feGaussianBlur stdDeviation="2"/>
<feColorMatrix type="matrix" values="0 0 0 0 0 0 0 0 0 0 0 0 0 0 0 0 0 0 0.14 0"/>
<feBlend mode="normal" in2="effect2_dropShadow" result="effect3_dropShadow"/>
<feBlend mode="normal" in="SourceGraphic" in2="effect3_dropShadow" result="shape"/>
</filter>
<filter id="filter1_ddd" x="190.239" y="1.82495" width="99.6429" height="100.35" filterUnits="userSpaceOnUse" color-interpolation-filters="sRGB">
<feFlood flood-opacity="0" result="BackgroundImageFix"/>
<feColorMatrix in="SourceAlpha" type="matrix" values="0 0 0 0 0 0 0 0 0 0 0 0 0 0 0 0 0 0 127 0"/>
<feOffset dy="1"/>
<feGaussianBlur stdDeviation="5"/>
<feColorMatrix type="matrix" values="0 0 0 0 0 0 0 0 0 0 0 0 0 0 0 0 0 0 0.2 0"/>
<feBlend mode="normal" in2="BackgroundImageFix" result="effect1_dropShadow"/>
<feColorMatrix in="SourceAlpha" type="matrix" values="0 0 0 0 0 0 0 0 0 0 0 0 0 0 0 0 0 0 127 0"/>
<feOffset dy="4"/>
<feGaussianBlur stdDeviation="2.5"/>
<feColorMatrix type="matrix" values="0 0 0 0 0 0 0 0 0 0 0 0 0 0 0 0 0 0 0.12 0"/>
<feBlend mode="normal" in2="effect1_dropShadow" result="effect2_dropShadow"/>
<feColorMatrix in="SourceAlpha" type="matrix" values="0 0 0 0 0 0 0 0 0 0 0 0 0 0 0 0 0 0 127 0"/>
<feOffset dy="2"/>
<feGaussianBlur stdDeviation="2"/>
<feColorMatrix type="matrix" values="0 0 0 0 0 0 0 0 0 0 0 0 0 0 0 0 0 0 0.14 0"/>
<feBlend mode="normal" in2="effect2_dropShadow" result="effect3_dropShadow"/>
<feBlend mode="normal" in="SourceGraphic" in2="effect3_dropShadow" result="shape"/>
</filter>
<filter id="filter2_ddd" x="196.811" y="8.55487" width="86.4986" height="87.8901" filterUnits="userSpaceOnUse" color-interpolation-filters="sRGB">
<feFlood flood-opacity="0" result="BackgroundImageFix"/>
<feColorMatrix in="SourceAlpha" type="matrix" values="0 0 0 0 0 0 0 0 0 0 0 0 0 0 0 0 0 0 127 0"/>
<feOffset dy="1"/>
<feGaussianBlur stdDeviation="2.5"/>
<feColorMatrix type="matrix" values="0 0 0 0 0 0 0 0 0 0 0 0 0 0 0 0 0 0 0.2 0"/>
<feBlend mode="normal" in2="BackgroundImageFix" result="effect1_dropShadow"/>
<feColorMatrix in="SourceAlpha" type="matrix" values="0 0 0 0 0 0 0 0 0 0 0 0 0 0 0 0 0 0 127 0"/>
<feOffset dy="3"/>
<feGaussianBlur stdDeviation="2"/>
<feColorMatrix type="matrix" values="0 0 0 0 0 0 0 0 0 0 0 0 0 0 0 0 0 0 0.12 0"/>
<feBlend mode="normal" in2="effect1_dropShadow" result="effect2_dropShadow"/>
<feColorMatrix in="SourceAlpha" type="matrix" values="0 0 0 0 0 0 0 0 0 0 0 0 0 0 0 0 0 0 127 0"/>
<feOffset dy="2"/>
<feGaussianBlur stdDeviation="2"/>
<feColorMatrix type="matrix" values="0 0 0 0 0 0 0 0 0 0 0 0 0 0 0 0 0 0 0.14 0"/>
<feBlend mode="normal" in2="effect2_dropShadow" result="effect3_dropShadow"/>
<feBlend mode="normal" in="SourceGraphic" in2="effect3_dropShadow" result="shape"/>
</filter>
</defs>
</svg>
