<?xml version="1.0" encoding="UTF-8" standalone="yes"?><svg xmlns="http://www.w3.org/2000/svg" width="20" height="20" fill="none"><g fill="#000000" clip-path="url(#clip0)" style=""><path d="M19.635 6.529l-3.547-4.12a1.531 1.531 0 00-2.083-.214l1.816.817a2.745 2.745 0 011.373 3.631l-2.952 6.546 5.233-4.509c.633-.549.702-1.518.16-2.151z" style=""/><path d="M15.31 4.126L10.35 1.89a1.518 1.518 0 00-1.983.686l1.99-.023h.039a2.752 2.752 0 012.746 2.709l.092 7.178 2.838-6.294c.35-.77 0-1.678-.763-2.021z" style=""/><path d="M11.923 5.278a1.532 1.532 0 00-1.526-1.51h-.023l-5.44.068A1.539 1.539 0 003.44 5.301l1.792-.862a2.67 2.67 0 011.19-.275c1.053 0 2.022.61 2.48 1.556l3.112 6.47-.091-6.912z" style=""/><path d="M11.389 13.692L7.803 6.24a1.53 1.53 0 00-2.037-.71L.861 7.895a1.529 1.529 0 00-.71 2.037l3.586 7.454a1.53 1.53 0 002.037.71l4.898-2.358a1.545 1.545 0 00.717-2.045zM7.735 9.291l-1.16 4.714a.366.366 0 01-.168.229c-.007.008-.015.008-.03.015a.358.358 0 01-.252.023l-2.296-.618a.351.351 0 01-.222-.168.384.384 0 01-.038-.274l.191-.702a.364.364 0 01.45-.26l1.213.329.893-3.632a.363.363 0 01.442-.267l.71.176a.387.387 0 01.228.168.359.359 0 01.039.267z" style=""/></g><defs><clipPath id="clip0"><path fill="#fff" d="M0 0h20v20H0z" style=""/></clipPath></defs></svg>