<?xml version="1.0" encoding="UTF-8" standalone="yes"?><svg xmlns="http://www.w3.org/2000/svg" width="20" height="20" fill="none"><path fill="#000000" d="M17.58 3.913h-2.708V1.82c0-.315-.243-.571-.542-.571H5.667c-.299 0-.542.256-.542.57v2.093H2.417c-.299 0-.542.256-.542.57v2.284c0 1.572 1.213 2.854 2.708 2.854h.824c.49 1.452 1.586 2.607 2.968 3.124v1.442h3.25v-1.442c1.382-.516 2.475-1.672 2.968-3.124h.824c1.492 0 2.708-1.279 2.708-2.854V4.483c-.003-.314-.247-.57-.545-.57zM4.583 8.479c-.895 0-1.625-.769-1.625-1.712V5.054h2.167v2.854c0 .195.013.383.032.571h-.574zm8.369-2.187l-1.084 1.114.256 1.572c.078.468-.392.82-.784.602l-1.343-.742-1.34.742c-.399.218-.863-.137-.785-.602l.256-1.572-1.083-1.114c-.32-.329-.143-.906.299-.975l1.498-.229.671-1.428a.529.529 0 01.97 0l.672 1.428 1.498.23c.441.071.62.645.299.974zm4.086.475c0 .943-.73 1.712-1.625 1.712h-.574a5.49 5.49 0 00.033-.57V5.053h2.166v1.713zM14.33 17.608h-.542v-.57c0-.944-.73-1.713-1.625-1.713H7.83c-.895 0-1.625.77-1.625 1.713v.57h-.542c-.298 0-.541.257-.541.571 0 .315.243.571.541.571h8.667c.299 0 .542-.256.542-.57 0-.315-.243-.572-.542-.572z" style=""/></svg>