<?xml version="1.0" encoding="UTF-8" standalone="yes"?><svg xmlns="http://www.w3.org/2000/svg" width="20" height="20" fill="#A8C8FA"><path fill="#A8C8FA" d="M10.76 4.38H9.244a.381.381 0 01-.387-.382V1.629c0-.208.17-.379.387-.379h1.516c.213 0 .387.167.387.38V4c0 .209-.17.38-.387.38z" style=""/><path fill="#000000" fill-rule="evenodd" d="M12.174 3.475h2.828c.688 0 1.25.55 1.246 1.227v12.824c0 .677-.558 1.224-1.25 1.224H5.002c-.691 0-1.25-.547-1.25-1.224V4.702c0-.677.559-1.227 1.257-1.227h2.828V4.88c0 .273.227.499.51.499h3.317c.28 0 .51-.222.51-.5V3.476zm-3.499 6.35a2.34 2.34 0 00-1.204 2.033h.003v.848c0 .273.227.499.51.499h4.04c.279 0 .51-.223.51-.5v-.847c0-.868-.486-1.63-1.205-2.034.23-.283.37-.646.37-1.035 0-.916-.761-1.662-1.697-1.662s-1.697.746-1.697 1.662c0 .393.14.752.37 1.035zm-1.767 4.719a.125.125 0 00-.224 0l-.255.516a.125.125 0 01-.094.068l-.57.083a.125.125 0 00-.07.213l.413.402c.03.03.043.07.036.111l-.097.568c-.018.102.09.18.181.132l.51-.268c.036-.02.08-.02.116 0l.51.268a.125.125 0 00.181-.132l-.097-.568a.125.125 0 01.036-.11l.412-.403a.125.125 0 00-.069-.213l-.57-.083a.125.125 0 01-.094-.068l-.255-.517zm2.98 0a.125.125 0 01.224 0l.255.516a.125.125 0 00.094.068l.57.083c.103.015.144.141.07.213l-.413.402a.125.125 0 00-.036.111l.098.568a.125.125 0 01-.182.132l-.51-.268a.125.125 0 00-.116 0l-.51.268a.125.125 0 01-.181-.132l.097-.568a.125.125 0 00-.036-.11l-.412-.403a.125.125 0 01.07-.213l.57-.083a.125.125 0 00.093-.068l.255-.517zm3.428 0a.125.125 0 00-.224 0l-.255.516a.125.125 0 01-.094.068l-.57.083a.125.125 0 00-.07.213l.413.402c.03.03.043.07.036.111l-.098.568c-.017.102.09.18.182.132l.51-.268c.036-.02.08-.02.116 0l.51.268a.125.125 0 00.181-.132l-.097-.568a.125.125 0 01.036-.11l.412-.403a.125.125 0 00-.07-.213l-.57-.083a.125.125 0 01-.093-.068l-.255-.517z" clip-rule="evenodd" style=""/></svg>