<?xml version="1.0" encoding="UTF-8" standalone="yes"?><svg xmlns="http://www.w3.org/2000/svg" width="20" height="20" fill="none" viewBox="0 0 20 20"><path fill="#000000" d="M18.0555 5.27789H15.0656L12.9967 1.14016C12.8589 0.865715 12.5256 0.755716 12.2511 0.89127C11.9767 1.02905 11.8656 1.36238 12.0023 1.63682L13.8233 5.27789H5.62122L7.4412 1.63793C7.57897 1.36349 7.46675 1.03016 7.19231 0.892381C6.91787 0.756827 6.58565 0.865715 6.44788 1.14016L4.37901 5.27789H1.38905C1.08238 5.27789 0.833496 5.52677 0.833496 5.83344V8.05563C0.833496 8.3623 1.08238 8.61118 1.38905 8.61118H18.0555C18.3622 8.61118 18.6111 8.3623 18.6111 8.05563V5.83344C18.6111 5.52677 18.3622 5.27789 18.0555 5.27789Z" style=""/><path fill="#000000" d="M2.34473 9.72229L4.18359 17.0789C4.24582 17.3266 4.46804 17.5 4.72248 17.5H14.7224C14.9768 17.5 15.2001 17.3266 15.2612 17.0789L17.1012 9.72229H2.34473ZM7.50022 14.7222C7.50022 15.0289 7.25134 15.2778 6.94467 15.2778C6.63801 15.2778 6.38912 15.0289 6.38912 14.7222V11.3889C6.38912 11.0823 6.63801 10.8334 6.94467 10.8334C7.25134 10.8334 7.50022 11.0823 7.50022 11.3889V14.7222ZM10.278 14.7222C10.278 15.0289 10.0291 15.2778 9.72242 15.2778C9.41576 15.2778 9.16687 15.0289 9.16687 14.7222V11.3889C9.16687 11.0823 9.41576 10.8334 9.72242 10.8334C10.0291 10.8334 10.278 11.0823 10.278 11.3889V14.7222ZM13.0557 14.7222C13.0557 15.0289 12.8068 15.2778 12.5002 15.2778C12.1935 15.2778 11.9446 15.0289 11.9446 14.7222V11.3889C11.9446 11.0823 12.1935 10.8334 12.5002 10.8334C12.8068 10.8334 13.0557 11.0823 13.0557 11.3889V14.7222Z" style=""/></svg>