<?xml version="1.0" encoding="UTF-8" standalone="yes"?><svg xmlns="http://www.w3.org/2000/svg" width="27" height="24" fill="none" viewBox="0 0 27 24"><path fill="#000000" d="M25.6352 10.2998C23.8405 8.1112 21.0017 7.54738 18.4525 6.67872C17.5441 6.36863 16.6109 6.12109 16.6109 6.12109L15.3508 8.45668C15.3508 8.45668 14.0735 11.0274 13.806 11.4051C13.5386 11.7829 10.3902 17.4197 10.3902 17.4197C10.3902 17.4197 10.5745 17.636 11.3783 17.9766C11.388 17.9807 13.5486 14.2981 13.5585 14.3022C16.1173 15.3758 19.3858 15.603 21.2561 17.8821C21.4378 18.1273 21.6812 18.1584 21.8205 17.918C23.1122 15.6818 24.4032 13.4478 25.6949 11.2117C25.8342 10.9713 25.9498 10.6743 25.6352 10.2998ZM17.7034 7.34669C18.537 7.69402 19.3894 7.9561 20.255 8.20903C19.8695 8.87777 19.4811 9.54776 19.0956 10.2165C18.2321 9.96445 17.3797 9.70237 16.544 9.35417C16.9303 8.68331 17.3179 8.01544 17.7034 7.34669ZM16.5814 14.5292C15.7241 14.2798 14.8767 14.0173 14.0493 13.6726C14.4409 12.9942 14.8334 12.3137 15.2251 11.6353C16.0526 11.98 16.9008 12.2403 17.7573 12.4919C17.3656 13.1703 16.9739 13.8487 16.5814 14.5292ZM17.7767 12.4976C18.2173 11.7368 18.655 10.9773 19.0956 10.2165C19.9583 10.4707 20.807 10.7361 21.6365 11.094C21.198 11.8556 20.7582 12.6143 20.3197 13.3759C19.4881 13.0172 18.6402 12.7497 17.7767 12.4976ZM21.1938 16.8466C20.5763 16.2347 19.9268 15.7981 19.1563 15.4185C19.548 14.7401 19.9405 14.0596 20.3322 13.3811C21.1027 13.7608 21.7522 14.1974 22.3696 14.8093C21.978 15.4877 21.5855 16.1682 21.1938 16.8466ZM23.6864 12.5273C23.0656 11.9116 22.4112 11.4753 21.6345 11.0931C22.02 10.4243 22.4083 9.75435 22.7939 9.08561C23.5706 9.46783 24.225 9.90412 24.8459 10.5198C24.4604 11.1886 24.0748 11.8573 23.6864 12.5273Z" style=""/><path fill="#000000" d="M0.994659 10.2998C2.7893 8.1112 5.62818 7.54738 8.17735 6.67872C9.08575 6.36863 10.0189 6.12109 10.0189 6.12109L11.279 8.45668C11.279 8.45668 12.5563 11.0274 12.8238 11.4051C13.0913 11.7829 16.2396 17.4197 16.2396 17.4197C16.2396 17.4197 16.0554 17.636 15.2516 17.9766C15.2419 17.9807 13.0812 14.2981 13.0713 14.3022C10.5126 15.3758 7.24403 15.603 5.37375 17.8821C5.19204 18.1273 4.94866 18.1584 4.80933 17.918C3.51759 15.6818 2.22667 13.4478 0.934933 11.2117C0.795605 10.9713 0.68007 10.6743 0.994659 10.2998ZM8.92646 7.34669C8.09279 7.69402 7.24041 7.9561 6.37483 8.20903C6.76034 8.87777 7.14873 9.54776 7.53423 10.2165C8.39774 9.96445 9.25011 9.70237 10.0859 9.35417C9.69953 8.68331 9.31196 8.01544 8.92646 7.34669ZM10.0484 14.5292C10.9057 14.2798 11.7531 14.0173 12.5806 13.6726C12.1889 12.9942 11.7964 12.3137 11.4047 11.6353C10.5773 11.98 9.72904 12.2403 8.87257 12.4919C9.26424 13.1703 9.65591 13.8487 10.0484 14.5292ZM8.8531 12.4976C8.41251 11.7368 7.97482 10.9773 7.53423 10.2165C6.67154 10.4707 5.82288 10.7361 4.9933 11.094C5.43182 11.8556 5.87159 12.6143 6.31011 13.3759C7.14175 13.0172 7.98959 12.7497 8.8531 12.4976ZM5.43603 16.8466C6.05352 16.2347 6.70301 15.7981 7.47351 15.4185C7.08184 14.7401 6.68935 14.0596 6.29768 13.3811C5.52718 13.7608 4.87768 14.1974 4.26019 14.8093C4.65186 15.4877 5.04436 16.1682 5.43603 16.8466ZM2.94338 12.5273C3.5642 11.9116 4.21866 11.4753 4.99538 11.0931C4.60987 10.4243 4.22148 9.75435 3.83598 9.08561C3.05927 9.46783 2.40479 9.90412 1.78398 10.5198C2.16948 11.1886 2.55499 11.8573 2.94338 12.5273Z" style=""/></svg>