<?xml version="1.0" encoding="UTF-8" standalone="yes"?><svg xmlns="http://www.w3.org/2000/svg" width="20" height="20" viewBox="0 0 20 20"><path fill-rule="evenodd" d="M15.7146 2.09527C16.2904 2.27688 16.8094 2.51652 17.153 2.799C17.1609 2.80549 17.1686 2.81211 17.1763 2.81886L17.283 2.91264C17.6364 3.20507 17.9242 3.57 18.1302 3.9816C18.1392 3.99956 18.1476 4.01781 18.1554 4.03631C18.3068 4.39537 18.3626 4.78825 18.319 5.17472C18.2773 5.54516 18.145 5.90143 17.9315 6.2085C17.7912 6.43844 17.6045 6.6387 17.3805 6.79376C17.1421 6.95883 16.8683 7.06773 16.5791 7.10936C16.3657 7.14006 16.1497 7.13331 15.9401 7.09024L15.3857 7.91213C15.3832 7.91587 15.3806 7.91959 15.378 7.92329C15.3753 7.92719 15.3726 7.93108 15.3698 7.93494C15.1782 8.20137 14.8852 8.39106 14.5451 8.44451C14.3288 8.4785 14.1122 8.45432 13.9144 8.37998L13.4164 9.10957C13.4122 9.11583 13.4078 9.12204 13.4034 9.12819C13.2118 9.39461 12.9188 9.5843 12.5787 9.63776C12.2374 9.69141 11.8957 9.60004 11.6285 9.39625C11.6194 9.38927 11.6104 9.38211 11.6015 9.37479L11.2582 9.09212C10.9916 9.27777 10.767 9.53728 10.6127 9.8539C10.3854 10.3205 10.3343 10.8651 10.4723 11.3729C10.6798 11.8837 11.0389 12.208 11.4873 12.293C11.9575 12.3822 12.782 12.2579 13.9914 11.3045C13.9924 11.3023 13.9934 11.3 13.9944 11.2975C13.9959 11.2941 13.9976 11.2901 13.9994 11.2858C14.0132 11.2534 14.0363 11.1989 14.0622 11.1445C14.1282 11.0066 14.2309 10.8271 14.408 10.6523C14.5831 10.4794 14.7942 10.3469 15.0376 10.245L15.3951 11.0987L15.0572 10.237C15.3065 10.1392 15.5735 10.0937 15.8421 10.1045C16.1106 10.1152 16.3729 10.1817 16.6136 10.2987C16.8542 10.4156 17.067 10.5798 17.2416 10.7793C17.4124 10.9744 17.5436 11.1999 17.6302 11.4424C17.8017 11.8927 17.8098 12.391 17.6546 12.8459C17.6301 12.9522 17.596 13.0564 17.5525 13.157C17.5408 13.1842 17.5277 13.2108 17.5134 13.2367C16.7825 14.5628 15.7464 15.6807 14.4948 16.4849C12.9162 17.5879 10.6639 18.3476 8.47299 18.3263C6.25338 18.3047 3.97421 17.4691 2.62653 15.228L2.62635 15.2277C0.299517 11.3551 2.28526 5.48028 7.70385 2.83765L7.70469 2.83724C9.82298 1.80679 11.8922 1.57417 13.5518 1.69593C14.3808 1.75676 15.1162 1.90656 15.7146 2.09527ZM15.6952 11.9812C15.6951 11.9812 15.6955 11.9809 15.6963 11.9804L15.6952 11.9812ZM15.7217 11.9664C15.7268 11.9639 15.7327 11.9611 15.7395 11.9581C15.7498 11.9549 15.7594 11.9538 15.7682 11.9541C15.7791 11.9546 15.7914 11.9573 15.8046 11.9637C15.818 11.9702 15.8335 11.9811 15.8486 11.9983C15.8638 12.0157 15.8778 12.0387 15.8877 12.067C15.8915 12.0779 15.8954 12.0887 15.8996 12.0994C15.9189 12.1488 15.9189 12.2068 15.8996 12.2562C15.88 12.3065 15.8648 12.3584 15.8542 12.4113C15.2677 13.4498 14.4514 14.3156 13.4808 14.9362C13.4695 14.9434 13.4583 14.9508 13.4474 14.9585C12.1755 15.8518 10.2916 16.4927 8.491 16.4752C6.71142 16.4579 5.13644 15.8098 4.21292 14.274C2.58757 11.5684 3.80699 6.79783 8.51503 4.50159C10.2998 3.6335 12.0354 3.44079 13.4163 3.54211C14.1076 3.59283 14.7013 3.71671 15.1578 3.86068C15.6212 4.00685 15.881 4.15394 15.9691 4.2223L16.072 4.31279C16.0802 4.32003 16.0886 4.32713 16.0971 4.33408C16.2419 4.45254 16.3656 4.60312 16.4586 4.77856C16.4792 4.83718 16.4869 4.90214 16.4796 4.96722C16.4713 5.04087 16.4446 5.10663 16.4071 5.15812C16.3874 5.1851 16.3692 5.21312 16.3526 5.24205C16.3435 5.25793 16.3336 5.26706 16.3269 5.27174C16.3204 5.27622 16.3164 5.27695 16.3154 5.27709C16.3145 5.27722 16.3134 5.27732 16.3109 5.27648C16.3085 5.27566 16.3033 5.27342 16.2967 5.26768C16.2483 5.2171 16.2045 5.17131 16.165 5.12994C16.1632 5.12773 16.1615 5.1258 16.1602 5.12418C16.1522 5.1146 16.1454 5.10682 16.1415 5.10248C16.1335 5.09341 16.126 5.08518 16.1209 5.07963C16.101 5.05797 16.072 5.02737 16.0442 4.99815C15.9859 4.93699 15.9101 4.85832 15.8627 4.80964L15.8301 4.77642L15.8139 4.7602L15.8003 4.74701L15.7867 4.73424C15.7824 4.73029 15.7698 4.71875 15.7532 4.70483C15.7455 4.6984 15.7279 4.68386 15.7044 4.66679C15.6927 4.65835 15.6636 4.63867 15.6461 4.62761C15.6191 4.61153 15.5437 4.57282 15.4945 4.55205C15.395 4.51975 15.055 4.49514 14.8243 4.55199C14.5092 4.756 14.242 5.29127 14.2399 5.52185C14.2572 5.62201 14.3039 5.76848 14.3253 5.81618C14.3391 5.84379 14.3641 5.88852 14.3747 5.90591C14.3951 5.93841 14.413 5.96247 14.4196 5.97125C14.4283 5.98283 14.4356 5.99198 14.44 5.99741C14.4408 5.99841 14.4416 5.99939 14.4424 6.00034L14.2252 6.32234L13.8324 5.99695C13.442 5.67358 12.8641 5.7244 12.5361 6.11095C12.2648 6.43082 12.2481 6.88208 12.4672 7.21665L12.2605 7.51946L11.9721 7.28188C11.7216 7.07561 11.3815 7.01555 11.0755 7.12357C10.1433 7.4527 9.38489 8.14761 8.94859 9.04317C8.51287 9.93753 8.42693 10.9714 8.70557 11.9282C8.71287 11.9532 8.72122 11.978 8.73062 12.0023C9.10564 12.975 9.90529 13.8771 11.1424 14.1117C12.3601 14.3427 13.743 13.8764 15.205 12.7045C15.4131 12.5392 15.5365 12.3531 15.6161 12.1989C15.6523 12.1287 15.6805 12.0629 15.6972 12.0235L15.7027 12.0107C15.7113 11.9907 15.7171 11.977 15.7217 11.9664ZM15.8475 4.79615C15.8464 4.79493 15.8466 4.79511 15.8477 4.79635L15.8475 4.79615Z" clip-rule="evenodd" style=""/></svg>