<?xml version="1.0" encoding="UTF-8" standalone="yes"?><svg xmlns="http://www.w3.org/2000/svg" width="20" height="20" fill="none"><path fill="#000000" d="M12.316 13.486c.35-.59.867-.892 1.552-.9.685-.008 1.03-.359 1.042-1.049.01-.687.307-1.206.894-1.557.588-.353.716-.828.38-1.43-.333-.599-.333-1.198 0-1.8.336-.6.21-1.073-.38-1.426-.587-.354-.885-.872-.894-1.562-.011-.687-.357-1.038-1.042-1.046-.685-.01-1.201-.31-1.552-.9-.352-.592-.824-.72-1.42-.383-.597.335-1.195.335-1.792 0-.597-.336-1.07-.209-1.42.383-.351.59-.869.891-1.553.9-.683.008-1.03.359-1.04 1.046-.01.69-.308 1.207-.895 1.562-.589.353-.718.826-.381 1.426.335.602.335 1.201 0 1.8-.337.602-.209 1.078.38 1.43.588.351.886.87.896 1.557.01.69.357 1.04 1.04 1.049.685.008 1.202.31 1.553.9.351.592.823.72 1.42.381.597-.332 1.195-.332 1.792 0 .596.338 1.07.21 1.42-.38zM10 11.417c-2.07 0-3.748-1.686-3.748-3.767a3.757 3.757 0 013.748-3.766c2.07 0 3.747 1.686 3.747 3.766S12.07 11.417 10 11.417z" style=""/><path fill="#000000" d="M6.071 13.138c-.72 0-.816-.337-.816-.337L3 16.985l2.255-.254 1.247 1.886s2.04-4.077 2.04-4.041c-1.346-.034-.81-1.402-2.47-1.438zM14.708 13.019c-2.055.216-1.637.728-2.107 1.126-.54.58-1.216.466-1.216.466l2.312 3.86.78-2.031 2.218.29-1.987-3.711zM10.826 6.66l-.714-1.528a.125.125 0 00-.226 0L9.17 6.66l-1.612.249a.125.125 0 00-.07.21l1.169 1.206-.274 1.695a.125.125 0 00.184.13l1.431-.795 1.431.795c.091.05.2-.027.184-.13l-.274-1.695 1.17-1.206a.125.125 0 00-.072-.21l-1.612-.25z" style=""/></svg>