<svg width="77" height="21" viewBox="0 0 77 21" fill="none" xmlns="http://www.w3.org/2000/svg">
<g clip-path="url(#clip0_12861_272613)">
<path d="M34.5593 12.6348V10.1278C34.5593 9.18181 33.9672 8.54502 33.0141 8.53667C32.4613 8.50025 31.9329 8.77302 31.6346 9.24867C31.3628 8.78704 30.865 8.51386 30.3371 8.53667C29.878 8.51408 29.4414 8.74034 29.1888 9.13167V8.63026H28.3342V12.6348H29.1971V10.4169C29.1971 9.72166 29.5743 9.35396 30.1583 9.35396C30.7422 9.35396 31.0129 9.73002 31.0129 10.4086V12.6348H31.8708V10.4169C31.8708 9.72166 32.2645 9.35396 32.8321 9.35396C33.3996 9.35396 33.6949 9.73002 33.6949 10.4086V12.6348H34.5593ZM47.3261 8.63361H45.9302V7.4202H45.0674V8.63361H44.2702V9.42918H45.0674V11.2526C45.0674 12.1819 45.42 12.7351 46.4305 12.7351C46.8079 12.7364 47.178 12.6292 47.4984 12.4259L47.2523 11.6805C47.023 11.8197 46.7628 11.8973 46.4961 11.9061C46.0696 11.9061 45.9285 11.6387 45.9285 11.2376V9.42918H47.3245L47.3261 8.63361ZM54.6141 8.53332C54.1897 8.52072 53.7924 8.74585 53.5791 9.11997V8.63361H52.7327V12.6348H53.5873V10.3919C53.5873 9.72334 53.8661 9.36232 54.4255 9.36232C54.6085 9.35962 54.7902 9.3937 54.9603 9.4626L55.2227 8.64196C55.0274 8.57079 54.8216 8.53405 54.6141 8.53332ZM43.596 8.95117C43.1121 8.65827 42.5558 8.51323 41.9934 8.53332C40.9993 8.53332 40.353 9.01969 40.353 9.81359C40.353 10.4671 40.8287 10.8682 41.708 10.9936L42.1098 11.0521C42.5773 11.1189 42.8004 11.2443 42.8004 11.4699C42.8004 11.7791 42.4887 11.9563 41.9048 11.9563C41.4337 11.9715 40.9713 11.8243 40.5925 11.5384L40.2038 12.2153C40.7014 12.5699 41.2978 12.7521 41.9048 12.7351C43.0383 12.7351 43.696 12.1903 43.696 11.4298C43.696 10.7262 43.1777 10.3585 42.3247 10.2331L41.9228 10.1746C41.5538 10.1245 41.2568 10.0493 41.2568 9.78183C41.2568 9.48934 41.5357 9.31385 42.0048 9.31385C42.4347 9.32032 42.8558 9.43824 43.2286 9.65648L43.596 8.95117ZM66.482 8.53332C66.0575 8.52072 65.6603 8.74585 65.447 9.11997V8.63361H64.6005V12.6348H65.4552V10.3919C65.4552 9.72334 65.734 9.36232 66.2934 9.36232C66.4764 9.35962 66.6581 9.3937 66.8281 9.4626L67.0906 8.64196C66.8953 8.57079 66.6894 8.53405 66.482 8.53332ZM55.477 10.6342C55.477 11.8476 56.307 12.7351 57.5717 12.7351C58.0845 12.761 58.5883 12.5905 58.984 12.2571L58.5739 11.5535C58.2785 11.7827 57.9184 11.9087 57.5471 11.9128C56.8647 11.9128 56.3644 11.4014 56.3644 10.6326C56.3644 9.86373 56.8663 9.36065 57.5471 9.35229C57.9184 9.35638 58.2785 9.4824 58.5739 9.71164L58.984 9.00799C58.5883 8.67464 58.0845 8.50413 57.5717 8.52998C56.307 8.52998 55.477 9.41748 55.477 10.6309V10.6342ZM63.4785 10.6342V8.62859H62.6239V9.11496C62.3283 8.72623 61.8661 8.50757 61.3838 8.52831C60.2832 8.52831 59.4154 9.40745 59.4154 10.6292C59.4154 11.851 60.2782 12.7301 61.3838 12.7301C61.8661 12.7509 62.3283 12.5322 62.6239 12.1435V12.6282H63.4785V10.6342ZM60.2996 10.6342C60.2996 9.93058 60.7507 9.35396 61.4905 9.35396C62.1974 9.35396 62.6731 9.90719 62.6731 10.6342C62.6731 11.3613 62.1974 11.9145 61.4905 11.9145C60.7507 11.9145 60.2996 11.3362 60.2996 10.6342ZM49.9884 8.53332C48.8401 8.53332 48.0331 9.38739 48.0331 10.6342C48.0331 11.9061 48.8713 12.7351 50.0458 12.7351C50.6322 12.7561 51.2057 12.5561 51.6566 12.1736L51.2383 11.5284C50.9121 11.7944 50.5079 11.9415 50.0901 11.9462C49.5389 11.9462 49.0386 11.6872 48.9156 10.9668H51.8321C51.8403 10.8582 51.8485 10.7496 51.8485 10.6326C51.8485 9.38572 51.0841 8.53165 49.9835 8.53165L49.9884 8.53332ZM49.972 9.31218C50.5231 9.31218 50.8758 9.66317 50.966 10.2832H48.9304C49.0206 9.70495 49.365 9.31218 49.9736 9.31218H49.972ZM71.403 10.6342V7.02576H70.5484V9.1183C70.2528 8.72957 69.7906 8.51092 69.3083 8.53165C68.2077 8.53165 67.3399 9.41079 67.3399 10.6326C67.3399 11.8543 68.2028 12.7335 69.3083 12.7335C69.7906 12.7542 70.2528 12.5355 70.5484 12.1468V12.6315H71.403V10.6342ZM72.402 12.2655C72.4358 12.2653 72.4693 12.2722 72.5004 12.2855C72.5304 12.2986 72.5577 12.3173 72.5808 12.3407C72.6037 12.3637 72.6221 12.3909 72.6349 12.4209C72.6616 12.4839 72.6616 12.5552 72.6349 12.6181C72.6221 12.6481 72.6037 12.6754 72.5808 12.6984C72.5576 12.7217 72.5303 12.7404 72.5004 12.7535C72.4693 12.767 72.4358 12.7738 72.402 12.7736C72.2997 12.7749 72.2067 12.7136 72.1658 12.6181C72.1393 12.5552 72.1393 12.4839 72.1658 12.4209C72.1914 12.3595 72.2398 12.3109 72.3003 12.2855C72.3335 12.2714 72.3693 12.2646 72.4053 12.2655H72.402ZM72.402 12.7167C72.4279 12.7172 72.4536 12.712 72.4775 12.7017C72.5001 12.6917 72.5207 12.6776 72.5381 12.6599C72.6141 12.5823 72.6141 12.4567 72.5381 12.3791C72.5207 12.3614 72.5001 12.3472 72.4775 12.3373C72.4536 12.3271 72.4279 12.322 72.402 12.3223C72.3756 12.3219 72.3493 12.3271 72.3249 12.3373C72.2257 12.3805 72.1797 12.4973 72.222 12.5984C72.2316 12.6213 72.2454 12.6422 72.2626 12.6599C72.2805 12.6778 72.3017 12.692 72.3249 12.7017C72.3503 12.7125 72.3778 12.7176 72.4053 12.7167H72.402ZM72.4168 12.3992C72.4413 12.3974 72.4657 12.4045 72.4857 12.4192C72.502 12.4326 72.5112 12.4531 72.5103 12.4744C72.5109 12.4927 72.5037 12.5104 72.4906 12.5229C72.4755 12.5365 72.4565 12.5447 72.4365 12.5463L72.5119 12.6348H72.4529L72.3823 12.5463H72.3594V12.6348H72.3101V12.4009L72.4168 12.3992ZM72.3593 12.4426V12.5062H72.4168C72.427 12.5092 72.4378 12.5092 72.4479 12.5062C72.4555 12.5009 72.4599 12.4921 72.4594 12.4828C72.4599 12.4734 72.4555 12.4646 72.4479 12.4594C72.4378 12.4563 72.427 12.4563 72.4168 12.4594L72.3593 12.4426ZM68.2273 10.6342C68.2273 9.93058 68.6784 9.35396 69.4182 9.35396C70.1252 9.35396 70.6009 9.90719 70.6009 10.6342C70.6009 11.3613 70.1252 11.9145 69.4182 11.9145C68.6784 11.9145 68.2273 11.3362 68.2273 10.6342ZM39.3737 10.6342V8.62859H38.5191V9.11496C38.2235 8.72959 37.7636 8.51305 37.2839 8.53332C36.1833 8.53332 35.3155 9.41246 35.3155 10.6342C35.3155 11.856 36.1783 12.7351 37.2839 12.7351C37.7662 12.7559 38.2284 12.5372 38.524 12.1485V12.6332H39.3787L39.3737 10.6342ZM36.1948 10.6342C36.1948 9.93058 36.6458 9.35396 37.3857 9.35396C38.0926 9.35396 38.5683 9.90719 38.5683 10.6342C38.5683 11.3613 38.0926 11.9145 37.3857 11.9145C36.6458 11.9145 36.1948 11.3379 36.1948 10.6342Z" fill="white"/>
<path d="M17.4293 5.87756H12.2622V15.3382H17.4293V5.87756Z" fill="#FF5F00"/>
<path d="M12.5902 10.6097C12.5888 8.76386 13.4205 7.01987 14.8457 5.88023C12.2814 3.82711 8.56899 4.28055 6.55374 6.89302C4.53853 9.50549 4.9836 13.2877 7.54785 15.3408C9.68936 17.0555 12.7041 17.0555 14.8457 15.3408C13.42 14.2008 12.5882 12.4561 12.5902 10.6097Z" fill="#EB001B"/>
<path d="M24.4004 10.6102C24.4004 13.9329 21.7564 16.6264 18.4951 16.6264C17.1714 16.6263 15.886 16.1732 14.8455 15.3397C17.4097 13.2866 17.8548 9.50435 15.8395 6.89188C15.549 6.51516 15.2152 6.17515 14.8455 5.87909C17.4093 3.82548 21.1218 4.27821 23.1375 6.8903C23.956 7.95093 24.4008 9.26105 24.4004 10.6102Z" fill="#F79E1B"/>
<path d="M23.8331 14.3353V14.1414H23.9102V14.103H23.7182V14.1431H23.7953V14.337L23.8331 14.3353ZM24.212 14.3353V14.1013H24.1611L24.0922 14.2684L24.0233 14.1013H23.9626V14.3353H23.9971V14.1598L24.0611 14.3119H24.1054L24.1693 14.1598V14.337L24.212 14.3353Z" fill="#F79E1B"/>
</g>
<defs>
<clipPath id="clip0_12861_272613">
<rect width="76" height="21" fill="white" transform="translate(0.973145)"/>
</clipPath>
</defs>
</svg>
