<svg width="76" height="21" viewBox="0 0 76 21" fill="none" xmlns="http://www.w3.org/2000/svg">
<g clip-path="url(#clip0_12861_272611)">
<path d="M56.9106 16.5269C55.9807 16.5269 55.0507 16.5269 54.1069 16.5269C54.0043 16.0246 53.8942 15.5333 53.8074 15.0378C53.7714 14.8321 53.7068 14.7524 53.4815 14.7553C52.3573 14.7701 51.2327 14.7664 50.1084 14.7574C49.9382 14.756 49.8705 14.8132 49.8187 14.9712C49.6638 15.4434 49.4945 15.9108 49.3211 16.3764C49.2976 16.4396 49.2197 16.5263 49.1663 16.5268C48.1528 16.5357 47.1393 16.5334 46.0966 16.5334C46.2866 16.0672 46.4666 15.622 46.6493 15.1781C47.9559 12.0018 49.2632 8.82573 50.5703 5.64963C50.8534 4.96172 51.2778 4.67366 52.0079 4.67362C52.8215 4.67357 53.635 4.67361 54.4694 4.67361C54.5508 5.06084 54.6327 5.44241 54.711 5.82474C55.354 8.96359 55.9956 12.1028 56.6401 15.2413C56.7227 15.6433 56.8201 16.0422 56.9106 16.4425C56.9106 16.4707 56.9106 16.4988 56.9106 16.5269ZM53.2411 12.3148C52.9423 10.8552 52.6475 9.41529 52.3527 7.97536C52.3407 7.97296 52.3286 7.97056 52.3166 7.96816C51.8029 9.4117 51.2893 10.8552 50.7699 12.3148C51.6087 12.3148 52.4119 12.3148 53.2411 12.3148Z" fill="white"/>
<path d="M44.6963 4.46252C45.0663 4.53252 45.4391 4.59007 45.8055 4.67617C46.1398 4.75474 46.4671 4.86424 46.8225 4.96735C46.6434 5.82056 46.4685 6.65333 46.2975 7.46813C45.8288 7.32807 45.3807 7.1668 44.9201 7.06324C44.2902 6.92159 43.6448 6.8676 43.0146 7.04651C42.7584 7.11924 42.4991 7.25889 42.2974 7.43494C41.9515 7.7369 41.9468 8.1716 42.2773 8.48863C42.5051 8.70722 42.7751 8.88669 43.045 9.05201C43.6585 9.42786 44.3025 9.7547 44.8987 10.1562C45.6009 10.629 46.113 11.279 46.2205 12.1579C46.4107 13.7124 45.8464 14.9369 44.5647 15.8031C43.7588 16.3478 42.8467 16.5911 41.8964 16.6812C40.5695 16.807 39.2688 16.6556 38.0009 16.2313C37.9159 16.2028 37.8331 16.1673 37.7503 16.1327C37.7255 16.1224 37.704 16.1042 37.6661 16.0801C37.8452 15.2256 38.0246 14.3698 38.209 13.4901C38.4251 13.5862 38.628 13.6825 38.8353 13.7677C39.8259 14.1743 40.8488 14.3603 41.909 14.1579C42.1849 14.1053 42.4662 13.9812 42.7 13.8215C43.2073 13.475 43.256 12.8239 42.794 12.4169C42.4904 12.1494 42.1254 11.9518 41.7794 11.7371C41.2391 11.4018 40.6651 11.116 40.1537 10.7407C39.4983 10.2595 39.0235 9.61807 38.9336 8.7655C38.7988 7.48895 39.2638 6.45241 40.2256 5.647C41.0624 4.94623 42.056 4.63523 43.1145 4.50462C43.1733 4.49736 43.2306 4.47686 43.2885 4.46252C43.7578 4.46252 44.227 4.46252 44.6963 4.46252Z" fill="white"/>
<path d="M33.7932 4.68326C33.6357 5.0694 33.4866 5.43756 33.3354 5.80486C31.8925 9.3119 30.4477 12.8181 29.0106 16.3277C28.9421 16.4949 28.8583 16.5388 28.6919 16.5374C27.7812 16.5297 26.8703 16.5266 25.9597 16.5394C25.7666 16.5422 25.7037 16.4732 25.6592 16.2967C24.8871 13.2313 24.1021 10.1692 23.3388 7.10158C23.1987 6.53878 22.9184 6.15441 22.3926 5.91851C21.5497 5.54038 20.6748 5.27475 19.7824 5.05884C19.7429 5.04929 19.7036 5.03885 19.6665 5.02941C19.671 4.67363 19.671 4.67361 20.0031 4.67361C21.597 4.67361 23.1908 4.67324 24.7847 4.67377C25.5407 4.67402 26.0864 5.12143 26.2293 5.88377C26.6339 8.04192 27.03 10.2017 27.4296 12.3609C27.4471 12.4553 27.467 12.5492 27.4935 12.6822C27.5348 12.603 27.5637 12.5586 27.5825 12.5101C28.5725 9.95911 29.5627 7.40827 30.5476 4.85528C30.6014 4.71592 30.6676 4.66864 30.8153 4.66984C31.7399 4.6773 32.6645 4.67345 33.5891 4.67397C33.6488 4.67401 33.7086 4.67926 33.7932 4.68326Z" fill="white"/>
<path d="M32.5862 16.5337C33.4188 12.5692 34.2457 8.63256 35.0745 4.68627C36.0827 4.68627 37.079 4.68627 38.0945 4.68627C37.9688 5.28732 37.8459 5.87689 37.7221 6.46627C37.038 9.72587 36.3512 12.9849 35.6746 16.2461C35.6275 16.4727 35.5487 16.5447 35.3179 16.5401C34.4903 16.5238 33.6622 16.5337 32.8342 16.5337C32.76 16.5337 32.6857 16.5337 32.5862 16.5337Z" fill="white"/>
</g>
<defs>
<clipPath id="clip0_12861_272611">
<rect width="76" height="21" fill="white"/>
</clipPath>
</defs>
</svg>
